<svg xmlns="http://www.w3.org/2000/svg" viewBox="0 0 500 500"><g id="freepik--Water--inject-18"><g id="freepik--water--inject-18"><ellipse cx="250" cy="346.86" rx="244.34" ry="141.05" style="fill:#9627BA"></ellipse><ellipse cx="250" cy="346.86" rx="244.34" ry="141.05" style="fill:#fff;opacity:0.5"></ellipse><g style="opacity:0.2"><path d="M439,434.65c-4.51.33-8.81.12-13.23.26a92.16,92.16,0,0,0-13,1.35c-2.69.47-5.62,1.15-7.48,2.45-2.75,1.93-2.08,4.36-.6,6.16,2.1,2.62,5.46,4.78,8.13,7.18q3.75-1.94,7.4-4c-1.24-1.77-2-3.62-3.15-4.87-.3-.33-.6-.68-.45-1.05.3-.67,2-1.34,3.95-1.76a56,56,0,0,1,6.19-.84q4.31-.41,8.62-.76c2.17-1.45,4.26-2.93,6.31-4.42C440.74,434.48,439.85,434.58,439,434.65Z" style="fill:#fff;opacity:0.7000000000000001"></path><path d="M471.76,369.86a15.45,15.45,0,0,0-6.36,7.8,19.06,19.06,0,0,0-1.24,9.43c.42,3.22,1.73,6.53-.92,9.85-3.15,3.94-11.33,6.7-18.58,7.08A41.71,41.71,0,0,1,426,400.67a22.08,22.08,0,0,1-7.9-5.06c-4-4.53-2.24-11,4.46-16.06,5.67-4.31,14.19-7.41,19.9-11.7,9.93-7.5,9-16.62,15.39-24.89a7.25,7.25,0,0,1,3.71-2.71c2.77-.83,5.55.16,6.58,1.47s1.09,2.92,2.28,4.18c2.17,2.24,7.74,2.83,13,2.07a52.55,52.55,0,0,0,10.91-3c0-1.77-.13-3.55-.29-5.32l-.06,0L485.86,342a17.32,17.32,0,0,1-3.69.78,9.7,9.7,0,0,1-3.94-.7,17.3,17.3,0,0,1-6.94-4.32c-2.44-2.74-3-6.05-3.48-9.3s-1-6.56-3.43-9.32-7.16-4.86-13.26-4.73c-3.32.07-6.93.79-9.86.27s-4.3-2.13-4.48-3.87.71-3.56,1.59-5.37c1.29-2.63,2.51-5.46.73-7.6s-6-3-7.71-5.07c-2.13-2.45.28-6.26,5.22-8.25a10.1,10.1,0,0,1,2.32-.65,15.64,15.64,0,0,1,2.91.08,24.21,24.21,0,0,0,14-3.42s2.68-1.69,6.44-3.55q-2.11-2.15-4.38-4.26l-22.25-12.21c-9.6-.91-19.61-1.63-27.12-3.49-19.93-4.94-16.38-16.35-35.13-21.72-2.9-.83-6.35-1.5-8.64-2.53a8.69,8.69,0,0,1-4.28-4c-1.59-2.69-2.65-5.49-2.06-8.39-10.05-2.87-20.37-5.31-30.88-7.33-.86.24-1.76.46-2.72.65-5.31,1-10.41,1.3-15.12,2.88a61.9,61.9,0,0,0-11,5c-3.33,1.87-6.57,4-10.72,5.09a33.89,33.89,0,0,1-12.58.75c-7.29-.84-13.08-3.18-19.27-5.08s-13.43-3.43-21.4-2.49c-5.2.62-10.55,2.25-15.51,2.09a17.67,17.67,0,0,1-11.82-5c-2.67-2.4-5.08-5.08-9.77-6.3a36.44,36.44,0,0,0-5.64-.87q-10.2,1.44-20.21,3.39a4.43,4.43,0,0,1,.59,1.81c0,.68-.16,1.42-1.39,2.07-1.53.8-4.19,1.32-6.47,1.95-6.27,1.7-9.6,4.25-11.09,6.6s-1.54,4.65-3.19,7c-1.42,2-5,4.43-11.22,5.34a39.31,39.31,0,0,1-11.49-.16c-3.26-.52-5.86-1.32-9-1.9a82.77,82.77,0,0,0-17.12-1.07,254,254,0,0,0-24.22,12.26,213.7,213.7,0,0,0-18.79,12.18A36.84,36.84,0,0,0,66.86,264c3,1.21,6.49,2.42,6.26,4.16-.17,1.44-2.86,2.94-5.49,4.34a23.62,23.62,0,0,1-7.91,2.87c-5.14.86-9.87,0-14.25-.56-1.58-.2-3.31-.34-5.13-.44q-2.48,2.38-4.77,4.81a25.73,25.73,0,0,1,4.6.49c7.6,1.59,10.15,6.43,12.3,10.81s5.2,9.15,13.15,10.38c6,.92,13.46-.46,19.84.06,7.87.65,10.71,3.84,11.78,6.29,1.48,3.37-1.84,7.17-3.63,10.77-1.36,2.74-1,5.32.09,7.85,1.36,3.24,6.69,8.19.54,10.23-3.89,1.29-5.2-2.66-7.53-4.18-4.1-2.68-11.65-3.36-18.93-2.32a63.53,63.53,0,0,0-20.1,6.65,63.55,63.55,0,0,1-9.19,4.42c-8.72,3-19.81.83-20.77-4-.6-3.11,2.3-6.59,2.25-9.78,0-3.92-4.42-6.73-9-9.32Q9.63,321.26,8.6,325c.1.12.19.24.28.37,2.6,4.06-2.34,10,2.22,13.33,1.19.91,3.15,1.73,2.53,3-.43.93-2.1,1.69-3.8,2.08-1.35.31-2.74.44-4.12.62,0,1.94-.06,3.87,0,5.81a115.88,115.88,0,0,1,19.77-2.76c3-.21,6.17-.39,8.57.28,4.06,1.15,4.44,4.22,4.91,6.89,1.37,7.61,6.65,14.51,15.14,19.78a28.16,28.16,0,0,0,8.43,3.66c5.81,1.41,13.55,1.19,17.9,3.59,5.93,3.27,2.76,9.51-.68,14.76a8.86,8.86,0,0,1-3.23,3.26c-3.55,2-9,1.64-12.58.56a22.28,22.28,0,0,1-7.11-3.51c-2-1.57-3.41-3.45-5.72-4.88-4.44-2.69-12.38-3.45-19.88-1.92A20,20,0,0,0,25,392.19c-1.66,1.06-2.54,2.38-4.1,3.51l-.14.08q2,3.09,4.22,6.15a28.4,28.4,0,0,1,17.35-5.76c16.07.47,10.72,9.32,27.83,9.65,3.88.07,8.08-.1,11.53.28,5.1.57,7.51,2.21,12.37,2.87,5.8.79,13.36.3,20.26-.23,7.57-.57,15.64-1.21,21.88-.41,3.42.43,7.18,1.49,8.19,2.68,2.6,3.07,3.38,6.64,1.44,10.15a10,10,0,0,1-2.56,3.28c-4.22,3.33-12.76,3.62-18.24,2.26s-9.66-3.88-15.77-4.57c-5.72-.65-12.48.43-18.41,2.32a84.54,84.54,0,0,0-16,7.29,27.25,27.25,0,0,1-6.38,2.93,24.3,24.3,0,0,1-7.64.64c-.46,0-.89-.08-1.33-.12q8.24,5.91,17.72,11.41a266.52,266.52,0,0,0,37.09,17.59c9.75,1,19.24,2,23.06,4.92a4.57,4.57,0,0,1,1.91,3.52q7.14,2.1,14.45,3.9c.79-2,3-4.16,3.57-6.25.77-2.82-1.51-5.26-4.74-7C137,454.92,104,460.4,88.94,451.76a18.47,18.47,0,0,1-6.61-6.46c-1.92-3.08-2.63-7,1.85-10.18,3.14-2.19,8.14-3.4,12.7-3.66a68,68,0,0,1,12.92.77l17.42,2.21c5.77.71,13.23,1.1,17.92-1.81,4.52-2.82,4.18-7.59,10.15-9.15a15.46,15.46,0,0,1,8.05.41c13.1,3.75,18.5,12.15,28,18.2a26.58,26.58,0,0,0,12.89,4.35c3.29.21,6.9-.14,10.24,0s6.64,1,7.11,2.83c.66,2.63-4.63,5.22-8.34,7.59-7.15,4.56-9.89,10.38-16,15.3a48.41,48.41,0,0,1-20.77,9.2q7.19,1.31,14.46,2.35a54.62,54.62,0,0,0,8.68-5.89c2.9-2.45,6.26-5.46,11.08-5.86s7.34,2.29,10.08,4.16c5.49,3.7,16.42,4.52,26.06,2,4.22-1.12,8.23-2.83,12.59-3.35a21.84,21.84,0,0,1,11.43,1.59c2.43,1.09,3.25,2.44,5.38,3.57a32.25,32.25,0,0,1,5.81,3.78,18.25,18.25,0,0,1,2.68,2.77c4.78-.39,9.53-.88,14.27-1.43A40.08,40.08,0,0,1,283.65,478c-4.19-2.95-8.11-6.11-13.76-8.25-4.74-1.82-11.71-2.75-17.73-.6-2.81,1-4.94,2.51-7.62,3.61-8.26,3.43-19.21,1.72-22.81-2.43s-1.35-9.79,2.65-14.83a56.8,56.8,0,0,1,12.26-11.09c4.72-3.25,10.45-6.42,12.62-10.16,2.74-4.65-.65-8.9,0-13.49a4.19,4.19,0,0,1,2.71-3.49,15.12,15.12,0,0,1,4.26-.91l18-2.05c3.47-.4,7.16-.79,10-.1s4.22,2.18,5.71,3.59c8.45,8,21.51,14.17,37.41,17.66,3.79.83,7.91,1.57,10.18,3.37s1.67,5.07-2.43,6.63c-3.15,1.19-7.42,1-11,1.85-4.64,1.1-4.51,2.37-3.86,3.67,1.73,3.46,4.62,6.76,7.11,10.11,2.72,3.65,5.88,7.46,3.9,11.58a20.5,20.5,0,0,1-7.36,8.66q9.3-1.71,18.4-3.84c.94-1.13,2.51-2.2,5.77-2.55a13.33,13.33,0,0,1,3.86.14q5.91-1.56,11.7-3.31c-.59-.36-1.17-.73-1.72-1.1-8.22-5.65-12.08-13.36-10.82-21.53.28-1.8.8-3.65.11-5.29-.56-1.38-1.95-2.57-1.82-4.06.16-2.44,4.26-4.72,7.94-6.62q6.47-3.27,12.93-6.58c8.11-4.14,17.13-9.34,16.62-14.58-.26-2.89-3.53-5.09-7.29-6.77a9.88,9.88,0,0,1-3.56-2.08c-.75-.89-.49-2.22,1.12-3.06,2.58-1.35,6-.5,8.78,0a32.06,32.06,0,0,0,14.67-1.19,30.54,30.54,0,0,1,4.33-1.29,10.67,10.67,0,0,1,7.35,1.24c1.68,1.07,2.53,2.48,3.76,3.74,4.4,4.58,13.44,7.35,23.78,7.25h3c6.57.64,12.81,2,16.93,4.57a11.65,11.65,0,0,1,2.62,2.17c3.19-3.24,6.16-6.53,8.87-9.88-1.17-2.28,1.27-4.93,2.64-7.45,4-7.49-2-14.41,3-21.93,1.34-2,4.26-4.35,10.26-5.36a29.6,29.6,0,0,1,3.38-.37c.63-2,1.17-4.11,1.65-6.16C485.2,365.13,477,366.51,471.76,369.86ZM360.64,241.06c9.65-.9,16.52,3,20.24,7.3s5.84,9.29,12.23,12.33c7.34,3.5,18.79,3.67,29.27,4.3s21.57,2.26,25.29,7.38c1.24,1.7,1.15,4.15-1.94,5.62a14.07,14.07,0,0,1-8.58.58c-2.5-.57-4.53-1.57-7.16-2.05a9.81,9.81,0,0,0-3.9,0,5.26,5.26,0,0,0-4.3,3.69c-.24,1.43.25,2.8-.44,4.24-1.56,3.37.26,6.69-4.36,9.47-3.28,2-8.17,2.86-12.41,2.84a56.52,56.52,0,0,1-11.7-1.56l-24.33-5.09c-5.85-1.22-12.31-2.91-12.67-6.54-.37-3.46,5.14-7.4,4-10.7-.84-2.49-5.22-3.76-9.62-4.37s-9.32-.82-12.93-2.14c-5.45-2-6.9-6.36-4.62-10.45s7.77-7.87,14.11-10.79A43.59,43.59,0,0,1,360.64,241.06ZM216.3,389.2c2,1.86,1.46,4.64-2.54,6.14s-9.76.86-13.22-.14c-5-1.43-7.79-4.34-8.74-7.54s-.07-6.7,1.25-10.15c1.84-4.82,4.63-10,1.56-14-1.38-1.75-3.78-3.11-6.42-4.27a67.06,67.06,0,0,0-17.84-4.72c-6.67-.89-14-1.07-20-2.64-7.25-1.88-12.11-6-11-10.94s9.13-10.2,18.09-11.18c7.57-.83,15.56,1.08,22.16-1.8,4.52-2,6.66-5.73,11.85-6.83a12.9,12.9,0,0,1,9,1.43c3.16,1.86,4.84,4.49,4.66,7.33s-2,5.69-2.8,8.54a15.68,15.68,0,0,0,.27,8.68,11.47,11.47,0,0,0,9,8.66c8.08,2,21.21-1.08,26.76,2.56,3.9,2.54,1.55,7.11-2.63,10.59s-10,6.46-13.89,10a18.73,18.73,0,0,0-5.72,9.14A1.4,1.4,0,0,0,216.3,389.2Zm-43-76.51c-6-4.2-9.08-9.74-8.83-15.69a13,13,0,0,1,4.14-9.16,25.33,25.33,0,0,1,13.81-6.31,23.56,23.56,0,0,1,15.77,3.21c3.64,2.36,5.8,5.39,8.9,8a38.6,38.6,0,0,0,13.5,6.92,43.67,43.67,0,0,0,16.3,2c7.55-.56,15-3.23,22.53-4.37,8-1.2,16-.62,21.76,1.57,4.67,1.8,7.85,5.12,5.28,8.63-3.8,5.19-15.07,7.84-23.6,11.31-.46.18-2,.5-2,.5a98.58,98.58,0,0,1-22.12,3c-5.12.09-10.86-.1-15.26,2a29.69,29.69,0,0,1-3.7,1.85c-4.1,1.41-8.24-.43-9.19-2.61s-.26-4.8-2.18-6.67c-2.78-2.71-10-2.88-16.42-2a57.58,57.58,0,0,1-9.27,1A16.55,16.55,0,0,1,173.35,312.69Zm58.84,35.67c-4.17-.18-8.64,0-12.43-.65-5.75-1-9.38-4.12-9-7.71s4.79-7.49,10.93-9.66c4.68-1.67,10-2.29,15-2.88l40.86-4.75c7.81-.91,15.9-1.87,23.14-4.4,3.09-1.08,5.93-2.42,9.05-3.46,4.73-1.57,7.68-2.67,12.54-2.6,0,0,1.69.16,2.19.27,5.3,1.16,8.24,4.36,8.21,7.74s-3.89,7.31-9.83,9.25a52.82,52.82,0,0,1-9.48,1.84l-15.39,2c-6.87.91-13.91,1.86-20.4,3.9s-12.45,5.43-14.14,9.21c-1,2.16-1,4.83-4.64,6.12s-7.3-.07-10.18-1.17A52.44,52.44,0,0,0,232.19,348.36Zm38.46-1a3.87,3.87,0,0,1,1.4-1.44c4.26-3,10.76-4.9,17-6s12.62-1.62,18.89-2.68A97,97,0,0,0,339,326.5c1.53-1.51,2.63-3.28,4.76-4.6,4.26-2.67,11.44-2.72,15.81-1.24s6.91,4.06,10.42,6.06c4.13,2.37,9.57,3.93,14.48,5.81s9.47,4.25,11,7.6-.79,7.87-6.81,10.36c-3.67,1.51-8.11,2.08-11.91,3.48-9.8,3.62-13.07,11.87-23.67,14.19-8.24,1.81-15.3-1.42-18.1-5.26s-3.22-8.44-7.45-11.72a13.6,13.6,0,0,0-8.42-2.66c-5.76.05-11.19,2.92-16.42,5-5.6,2.29-12.42,4-18.22,3.35-6.93-.72-10.37-4.37-13.16-7.77C270.86,348.59,270.39,348,270.65,347.33Zm93-35.61c-7.15.43-15,4.22-21.16,3.07-6.6-1.22-5.64-7.17-12-8.69-4-1-9.62.27-14.06,2s-8.26,4-12.84,5.53-12.48,3.52-15.94,2.89c-1.91-.36-1.72-1.58-1.51-2,1.76-4,12.77-6.78,13.14-10.66.14-1.52-1.16-2.78-2.57-3.9-4.69-3.73-10.95-6.85-13.86-11.22s-1.41-10.69,6.66-14.3c7.78-3.49,18.2-2.92,24.7-.4s10.27,6.57,15.19,10c9.65,6.66,24.07,11,40.57,12.3,4.46.35,9.09.47,13.35,1.09a34.24,34.24,0,0,1,10.13,2.89c3.46,1.69,5.89,4.13,5.49,7s-4.23,6.11-9.43,7.25C380,316.64,373.21,311.12,363.63,311.72ZM215.68,231.65c6.06-5.4,19-8.66,28.24-7.15,9.49,1.55,13.91,7.11,22.87,9.18,5.78,1.35,13.31,1.07,20.13-.74,7.41-2,13.48-5.55,19.83-8.67s14-6.08,21.53-6.12a32.76,32.76,0,0,1,8.57,1.16c6.42,1.68,11.67,4.59,13.32,8.53s-.68,9-6.89,12.45c-2.14,1.2-4.6,2.18-6.87,3.29-7.65,3.74-12.75,9-13.54,14s2.78,9.56,9.43,12.08c4.09,1.56,9.92,1.66,14.14,3.12,4.47,1.53,2.06,4.31,1.4,6.81a2.47,2.47,0,0,1-1.11,1.66c-1.57,1-4.14.73-5.84.24-12.87-3.78-16-14.51-31.21-15.78-5.2-.43-11.15.35-15.95-.53-5.7-1.05-8.5-4.2-11.57-6.94a18.65,18.65,0,0,0-14.09-5.06c-7.83.43-14.63,4.94-22.47,6.45a33.4,33.4,0,0,1-21.72-3.45c-6.73-3.53-11.67-8.22-12.59-13.77C210.7,239,211.81,235.08,215.68,231.65Zm-.08,28.64c4,2.27,8,4.53,12,6.8a13.29,13.29,0,0,0,5.85,2.05c6.13.47,11.86-3.59,17.86-5.81a32.43,32.43,0,0,1,15.39-1.7,28.8,28.8,0,0,1,10.54,3.76c3.34,2.09,4.59,6.82,2,9.91s-6.82,6.13-7.21,9.26c-.21,1.65.61,3.37-1.22,4.91-2.84,2.32-8.58,2-13.22,2.76-4.87.83-9,3.17-13.78,4.34a28.94,28.94,0,0,1-18.18-1.48c-4.52-2.14-7.1-5.26-9.62-8.3s-5.14-6.17-9.71-8.27c-3.86-1.77-9-2.77-12.09-5-4.73-3.4-2.87-9.5,4.09-13.37a19.9,19.9,0,0,1,8.24-2.5C210.43,257.5,213.19,258.94,215.6,260.29ZM90.65,241.39a59.2,59.2,0,0,1,28.08.29c7.65,1.92,15.41,5,24.73,3.11,8.68-1.78,14.08-7.08,17.81-11.77s8-10,16.2-12.65a33.27,33.27,0,0,1,16.29-.89c4.42.94,7.82,2.5,9.72,4.31,1.6,1.53,2.12,3.23,1.26,4.88-1,1.82-2.77,3.57-4,5.37-2.22,3.11-2.78,6.36-1.69,9.23,1.24,3.08,4.33,6.12,1.58,9.44s-10.66,5.31-13.95,8.67-.65,7.28-3.39,10.89-11.56,6.16-17.21,4.87-6.93-5.18-11.6-7.14c-4-1.69-10.48-1.69-15.95,0-1.81.56-3.47,1.27-5.32,1.69-6.64,1.5-11.9-1.18-16.06-3.46a32,32,0,0,0-16.57-4.52c-2.71,0-5.54.45-8.18.34a25.17,25.17,0,0,1-8.64-2.18c-4.27-1.74-8.52-3.79-9.5-6.85C72.6,250,80.93,243.82,90.65,241.39Zm-8.93,53a55.54,55.54,0,0,1-7.46-.18c-8.21-1.1-9.9-7.08-6.16-12,3.47-4.52,10.55-8.58,18.7-10.68s17.11-2.21,23.67-.29c4.3,1.26,7.46,3.3,10.67,5.24,3.49,2.07,8.73,4.16,14.32,2.46,3.3-1,5.95-3.17,9.37-3.37a8.81,8.81,0,0,1,4.71,1.1c4.05,2.08,6.6,5,7.15,8.31,1,6-4.23,12.66-3.53,18.68.53,4.61,4.59,8.54,10.57,11.23,2.21,1,4.76,1.87,6.3,3.23s1.81,3.42-.42,5c-2.49,1.78-6.87,2.23-10.42,2.16s-7.17-.47-10.81.37c-4.55,1.06-9.24,4.7-11.6,6.54-.55,2.85-1.16,5.79-3.6,8.58a20.21,20.21,0,0,1-12.52,5.92c-7.7.72-12.09-3.22-14-6.95-3.82-7.25-4.17-15.43-1.09-23.66,1.69-4.43,4.35-9.07,2.68-13.06C105.66,296.92,93.67,294.28,81.72,294.35Zm-.28,82.53c-13.1-1.18-20.16-7.71-26.06-13.81-4-4.14-8.05-8.49-7.94-13.63s5.67-11.33,15-13.81a36.44,36.44,0,0,1,17.26-.18,36.66,36.66,0,0,1,12.13,5.63c4.21,2.86,8.1,5.31,11.16,8.66,3.52,2.59,11,3.19,17.52,1.37a41,41,0,0,1,4-1.05c5.4-.88,8.45,2,11.34,4.07,4.38,3.13,11.65,4.86,19.68,4.7,5-.11,10.52-.92,15.06-.21s7.4,3.91,3.72,6.31c-4.29,2.81-11.78,1.51-17.4,3.36-2.43.8-4.38,2.17-6.94,2.73-3.54.77-6.66-.26-9.35-1.16a52.8,52.8,0,0,0-19.84-2.94c-10.1.54-20,4.33-29,8.11a25.09,25.09,0,0,1-5.1,1.73A19.3,19.3,0,0,1,81.44,376.88Zm159.22,54.8a18.81,18.81,0,0,1-10.87,8.53,35.62,35.62,0,0,1-11.15,1.56c-15.57,0-25.69-6.42-34.39-12.46l-23-15.94c-7-4.88-15.17-10.07-27.67-10.2-9.7-.09-20.53,2.94-29.62,1.92-10.55-1.17-15.11-7.6-13.46-13.92,1.23-4.6,5.59-9.6,13.09-12.67a51.42,51.42,0,0,1,8.74-2.53c3.5-.73,7.29-1.24,10.35-.68a29.39,29.39,0,0,1,5.67,2c6.85,2.65,17.89,2.25,26.59-1,3-1.12,5.81-2.54,9.09-3.27,6.35-1.43,12.57.33,15.22,3.13s2.54,6.39,2.46,9.84-.11,7.05,2.62,9.81c2.57,2.64,7.4,4.24,12.14,5.72a35.56,35.56,0,0,0,11.45,2c4.11-.07,8.48-1.18,12.51-1.1a19,19,0,0,1,10,3c3.82,2.43,4.28,3.45,6.13,6.78a6.82,6.82,0,0,0,.69,1.35,15.6,15.6,0,0,1,1.51,3C241.24,422,243.92,425.69,240.66,431.68Zm49-38.84c-.58,2.14-.49,4.26-1.67,6.4-2.66,5-12.16,9.1-21.19,10.09s-17.41-.72-23.26-3.65-9.46-7-12.49-11.16c-2.79-3.88-5-8.57-.47-12.94s14.18-7,17.37-11.47c2.32-3.19,1.23-7.12,6.43-9.3a16.46,16.46,0,0,1,9.71-.46c2.8.72,4.94,1.95,7.52,2.82,8.32,2.78,21.69,1.38,30.65-3.23,3.47-1.8,6.84-4.16,11.14-4.57,3.52-.34,6.37.87,7.72,2.45s2.68,3.68,4.23,5.19c2.12,2.13,7.81,4.94,9.76,7.17a8.49,8.49,0,0,1,1.64,5c-.14,2-2,4.3-4,6.25a17,17,0,0,1-5.64,3.84c-5,2-11,1.33-16,.61s-11.14-1.23-16,.94A9.23,9.23,0,0,0,289.62,392.84Zm120.73-6.91c-.58,1.92-3.69,3.61-6.56,5.07-4.05,2.08-8.74,4.3-13.66,4.49-5.65.23-9.52-2.3-15.13-2.18-6.45.14-13.13,4.61-11.71,7.85.81,2,3.82,3.15,6.14,4.55a13.32,13.32,0,0,1,5.41,5.61,6.28,6.28,0,0,1-1.09,7.2c-1.78,2-4.85,3.65-8,5.18A60.54,60.54,0,0,1,351.08,429c-10.09,2-19.55,0-27.38-2.48a142.3,142.3,0,0,1-25.59-10.64c-3.79-2.05-7.5-4.48-7.38-7.74,0-1.61,1-3.28,1.67-4.92,1.05-2.55,1.42-5.12,3.1-7.64a15.71,15.71,0,0,1,9.64-6.16c7.49-1.65,13.69,1.6,21.23,1.07,5.26-.37,10.71-2.81,12.73-5.69,1.43-2.05,1.2-4.11,1.8-6.17a8.39,8.39,0,0,1,6.22-5.43c2.43-.65,5-.49,7.55-.88,8.77-1.35,12.91-8.27,21.52-10.37a7.15,7.15,0,0,1,2.19-.24,1.69,1.69,0,0,1,1.67,1.95c-.08,4-2.3,8.8,2.67,11.11l.3.52c3.48,2.46,8.42,4.23,14.16,5.09a76.73,76.73,0,0,1,9,1.41C408.83,382.58,410.9,384.07,410.35,385.93Zm-20.12-12.68a8.56,8.56,0,0,1-3.35-7.5c.25-4.57,3.42-9.45,8.85-13.66,3.43-2.66,7.8-5.11,10-8,3.6-4.65.81-9.37-4.65-12.22s-13.11-4.2-20.59-5.51c-3.07-.55-6.59-1.46-6.31-3.39.2-1.62,3.24-3.14,6.19-3.79s6-.75,9-1.13c6.34-.83,12.66-3.14,16.9-6.22l.6-.71c-.84-2.48-1.19-5.18.67-7.86s6.41-5.27,11.3-5.67c5.62-.47,9.44,1.95,11,4.62a9.45,9.45,0,0,1,0,9.47c-1.3,2.49-3.51,5.24-1.78,7.25s7,2.28,11.62,1.94,9.61-1.05,13.52-.2c5.26,1.15,6.66,4.71,6.91,8a7,7,0,0,1-2.74,6.67c-1.36,1.08-3.28,2-4.85,3-7.26,4.54-6.84,10.52-8.44,15.93-2.05,7-8.94,14.45-20.29,19S396.68,378.26,390.23,373.25Z" style="fill:#fff;opacity:0.7000000000000001"></path></g><g style="opacity:0.2"><path d="M432.92,440.36a99.94,99.94,0,0,0-11.12-3.76c-3.29-.82-7.72-1.18-11.23.32A9.25,9.25,0,0,0,406.1,441a17.67,17.67,0,0,0-2.46,7.14c-.25,2.42.12,4.79-.48,7.25a8.93,8.93,0,0,1-.58,1.61q4.17-1.93,8.23-4c.4-1.45.82-2.9,1.27-4.35a12.1,12.1,0,0,1,1.53-3.39,5.23,5.23,0,0,1,3.2-2.17,4.66,4.66,0,0,1,1.92.25c1.88.49,4.48.88,7.14,1.38Q429.48,442.6,432.92,440.36Z" style="fill:#fff"></path><path d="M35.61,303.09c8.55-2,18.21-5,21.47-9.78,3.52-5.11-2.18-9.36-5.68-13.56-3.33-4-4.64-8.87-1.75-13.67q-5.57,4.59-10.42,9.36a13.14,13.14,0,0,0,1.68,4.22c1.06,1.7,2.5,3.13,3.45,4.92a6.81,6.81,0,0,1,.29,6.3c-1.66,3.42-6,5.38-9.73,6.16-4.29.9-8.48.93-12.78,1.75-.73.14-1.48.32-2.23.52a102.28,102.28,0,0,0-6.28,11.77C18.73,307.14,27.62,305,35.61,303.09Z" style="fill:#fff"></path><path d="M164,478.93q5.85,1.26,11.8,2.35a35.46,35.46,0,0,0-10.2-2.26C165.11,479,164.57,479,164,478.93Z" style="fill:#fff"></path><path d="M479.66,395.07c-2.37.54-4.81,1-7.2,1.3-7.51,1.08-14.47-.65-21.11-2.14-6.11-1.37-12.12-3-18.44-3.9-2.36-.36-4.68-.43-6.68,2.12-1.52,1.94-1.21,4.28-3.38,6-2.84,2.24-8.8,2.57-12.08,1.33s-4.63-3.51-6.14-5.59c-6.37-8.72-17.61-15.88-32.19-20.52-2.57-.82-5.36-1.62-6.55-3.13s-.55-3.61.19-5.51l3.73-9.9a4.34,4.34,0,0,1,1.66-2.33c1.55-1.07,4.14-1.41,6.37-1.49,8.36-.33,16.1,1.53,24.58,0,6.82-1.19,12.6-4.33,18.52-6.92a122.21,122.21,0,0,1,20.21-6.72c9.19-2.2,19.45-3.41,27-1.46s10.68,8,4.43,12.52c-2,1.47-4.76,2.64-6.57,4.18-3.93,3.3-2.24,7.12,1.07,9.72,3.92,3.1,9.66,5.25,15.05,7.55a60.78,60.78,0,0,1,7.62,3.79c.58-1.72,1.09-3.45,1.56-5.18a44.8,44.8,0,0,1-5.62-2.71c-2.06-1.16-4.53-1.61-6.52-2.95-2.44-1.63-3.88-3.86-2.89-6.27s4.06-4.59,6.1-6.91c4.63-5.28,3.12-11.28-3.63-14.29-3.39-1.51-8.33-2.81-7.58-5.53s6.22-4.49,10.69-6.08a78.9,78.9,0,0,0,8.19-3.44q-1.24-3.86-2.88-7.68c-3.75,4.52-10.52,7.91-15.62,9.82-9,3.37-19.59,4.88-27.9,8.8-4.33,2-9,4.94-13.83,4.58-3.28-.26-4.9-2.07-5.17-3.9s.36-3.82,0-5.62c-.64-3-4.09-5.25-7.94-7.08-11-5.2-26.33-8.16-33.16-15.35-1.22-1.28-2.11-2.87-.75-4.42,2.84-3.27,11.53-3.08,16.67-5.56,5.31-2.58,4.6-6.67,3.3-9.83l-4-9.56c-.95-2.28-1.92-4.58-1.41-7.09s2.68-5.24,6.68-7c5.71-2.46,12.93-2.07,18.55-1a43.34,43.34,0,0,1,11.77,3.63c15.76,8.24,5.77,26.38,21,34.91a22.61,22.61,0,0,0,12.75,2.59c3.91-.32,7.87-1.58,11.72-2q-2.49-4-5.39-7.9a22.6,22.6,0,0,1-8.46-1c-8.05-3.2-8.24-13.62-12.22-20.77-.09-.16-.19-.32-.29-.48q-6.54-5.67-14.13-11c-.76-.31-1.54-.62-2.32-.9-7-2.53-14.58-3.92-21.78-6.08-1-.31-2-.67-2.35-1.55-.47-1.21.4-4,1.6-6.6a293.18,293.18,0,0,0-55.16-21.88c-3.75.19-7.53.5-11.28.76a2.76,2.76,0,0,1-1.54-.19c-.76-.46-.55-1.63-.38-2.61.09-.48.16-1,.22-1.44-2.32-.58-4.66-1.12-7-1.66a10.19,10.19,0,0,1-.35,3.18,11,11,0,0,1-6.84,7.37c-2.05.86-4.45,1.34-6.39,2.25a10.23,10.23,0,0,0-4,3.42c-2.78,4.11-1.4,8.47,3.51,10.9,2.6,1.27,6,2,8.89,3.15a18.65,18.65,0,0,1,6.4,3.9c2,2,2.66,4.95-1,6.9a22.42,22.42,0,0,1-6,1.77c-9.55,1.88-20.94,3.62-26.9.37-4.37-2.39-4-6.63-6.54-9.82-1.5-1.86-4-3.32-6.68-4.62-9.59-4.66-22.17-7.56-36.05-8.31-4.86-.26-10.47-.46-12.56-2.69-1.23-1.32-.89-3.05-.51-4.7,1.11-5.07,3.52-10.58,8.65-14.2,2.39-1.68,10.86-5.49,9.33-8.43q-7.92-.22-15.85-.16a12.41,12.41,0,0,1,3.27,1.1c.7.39,1.24.89,1.24,1.49-.05,1.61-3.57,2.8-6.1,4a12.54,12.54,0,0,0-5.85,4.85,18.32,18.32,0,0,1-1.38,2.77,5.9,5.9,0,0,1-3.8,2.08c-2.35.34-3.84-.73-5.5-1.39-6.1-2.5-16.9.21-24.3-1.21a31.36,31.36,0,0,1-6.56-2.31c-5-2.13-10.68-3.85-16.1-5.72-3.48.58-6.93,1.22-10.37,1.89a56,56,0,0,1,15.91,5.84c5.52,2.93,11.18,6.35,19.71,6.38,5.82,0,12.17-1.56,17.84-1.23,8.83.53,12.76,6.61,7.32,11.39-2.13,1.89-5.23,3.41-8.06,5-5.58,3.23-10.25,7-12.12,11s-.65,8.13,4.23,10.38c2.77,1.28,10,2,7.63,4.13-3.73,3.38-12.75.45-18.66-.29a51.5,51.5,0,0,0-14.31,0c-6.57,1-13.48,2.8-19.64,2-4.45-.59-10.28-2.14-11.46-6.46-.95-3.5,1.57-7.58-.11-10.88-2.23-4.37-10.92-6-18.92-7.22s-16.81-2.58-19.71-6.75c-2-2.81-.71-6.46,2.42-9.63.37-.38.78-.77,1.2-1.14q-6.78,2.35-13.35,5a17.17,17.17,0,0,0,.89,8.71c1,2.41,2.59,5,1,7.82-1,1.92-3.24,3.22-5.24,4.34-2.54,1.44-5.27,2.92-7.91,3-3.17.13-5.37-1.81-7.57-3.43a41.78,41.78,0,0,0-12-5.82c-1,.54-1.94,1.08-2.9,1.63q-9.15,5.28-17.12,11a33.17,33.17,0,0,1,15.61-2.74,23.82,23.82,0,0,1,12.49,5.21c1.86,1.38,3.68,2.86,4,4.74.2,1.45-.55,3-.62,4.49-.22,3.8,3.86,6.7,8.24,9.09,4.16,2.28,9,5.16,6.3,8.8a29.65,29.65,0,0,1-3.06,2.92c-3.09,3-3.08,6.55,0,8.75,3.57,2.57,10.69,3.31,13,6.37s-2.19,7.91-8.87,9.44-13.47,0-19.86,1.86c-6.12,1.8-9.59,6.09-15.8,7.65-6.05,1.51-11.6-.18-17.21-.86a52.76,52.76,0,0,0-16.82.92c-3.29.69-6.48,1.68-9.8,2.21a19.57,19.57,0,0,1-8.89-.69,15.21,15.21,0,0,1-7.86-5.33,6.08,6.08,0,0,1-.7-1.27,88.11,88.11,0,0,0-2.56,9.2c3.9,1.42,7.44,3.29,7.74,6s-2.69,5.66-3.81,8.51c-1.72,4.37,1.05,8.35,4.53,11.74s7.73,6.57,9.26,10.57A6.34,6.34,0,0,1,24,372.6c-2.08,2.28-5.87,4-9.28,5.88-.79.42-1.58.86-2.36,1.31.85,2,1.78,4.08,2.79,6.11,1.41-1,2.94-2,4.49-3,5.68-3.48,12.18-6.81,15.8-10.88,3.31-3.73,3.82-7.86,1.35-11-3.77-4.91-13.9-7.34-16.73-12.54s3.19-12.17,13-15.5a54.23,54.23,0,0,1,19.67-2.41,56.44,56.44,0,0,1,25.12,6.91c5.2,3,9.27,7.23,6.27,11.92-2.74,4.3-11,8-11.75,12.32-.68,3.61,4.24,6.06,9.22,7.73s10.74,3.23,12.65,6.35c1.61,2.63.18,5.9,1,8.75,2.33,8.37,21.89,10.06,28.77,17.12.9.93,1.35,2.34-.44,3.2a8.51,8.51,0,0,1-3,.61c-4.56.37-9.64,1.69-12.42-.76s-2.84-5.52-5.69-7.76c-4.59-3.65-12.94-5.61-22-5.18S61.68,395,54.87,399.16c-2,1.25-3.82,2.6-6,3.78-5.57,3-13.31,4.34-20,4a143.87,143.87,0,0,0,15.49,16.13c10.68,6.36,27.18,6.23,34.93,15.64,2.78,3.39,4.16,7.7,5.49,12a275.17,275.17,0,0,0,34.61,15.33c1.64-.88,2.77-1.42,2.77-1.42,4.33-2,6.86-5.11,6.23-7.68a2.52,2.52,0,0,1-.15-1.6,3.78,3.78,0,0,1,1.19-1.27c3.62-2.71,10.57-4,15-2.86,3.74,1,5.53,3.26,9.24,4.23,3.9,1,9.07.3,13.86-.4a55.2,55.2,0,0,1,9.79-.87c3.16.1,6.11.89,7,2.46s-.36,3.58-.49,5.4c-.24,3.35,3.64,5.94,8.63,7.27s11,1.62,17,1.89,12,.57,17,1.91a21.3,21.3,0,0,1,7.88,3.8c.75.61,1.4,1.33,1.26,2.16a4.75,4.75,0,0,1-1.42,2c-1.41,1.47-2.81,3-4.22,4.44-.57.58-1.15,1.17-1.76,1.75q4.41.24,8.85.37c3.42-2.48,6.71-5.12,8.06-7.92s.33-5.93-3.77-7.12c-2.28-.65-5.23-.66-7.61-1.25s-4.2-2.09-2.68-3.61c1-1,3.06-1.6,4.93-2,15.07-3.53,31.7-3,45.38-8.45,7.81-3.12,13.47-7.8,21.32-10.91,9.21-3.68,21-4.66,29.29-2.45a28.33,28.33,0,0,1,9.21,4.34c3.94,2.76,6.82,6.26,6.12,10.24s-5.73,8.46-12.91,10.19c-6.06,1.45-12.08.74-18,.51a110.86,110.86,0,0,0-17.17.68c-4.92.57-10.09,1.53-14.22,3.49-6.89,3.25-9.21,8.53-7.75,12.63a8.7,8.7,0,0,0,.4.95q5.28-.35,10.53-.83a5.78,5.78,0,0,1,.64-4.3c1.85-3.29,6.12-4.89,9.77-5.62,13.7-2.72,26.33.57,40-1.63,4.83-.79,9.94-2.24,14.24-1.33a14,14,0,0,1,2.54.85q8.81-2.43,17.34-5.29a24.51,24.51,0,0,1-6.49-2,15.23,15.23,0,0,1-8.32-9.29v-1.67c.18-5.67-4.87-10.63-13.22-13a50.29,50.29,0,0,1-6.83-2.06c-1.94-.92-3.2-2.43-2.26-4A12.61,12.61,0,0,1,338,434.4c2.78-2.61,3.6-5.65,2.18-8-.93-1.52-2.47-3.4,0-4.82a8.35,8.35,0,0,1,5.57-.61,11,11,0,0,1,3.8,1.95,22.73,22.73,0,0,0,12.34,4c9.56.27,19-4.68,26.58-9.13q6-3.54,12-7.09c3.45-2,7.61-4.26,12.07-4.35,2.7-.08,4.87.69,7.38,1a57.87,57.87,0,0,0,9.66-.06c13.83-.64,26.93,1.15,37,5A123,123,0,0,0,479.66,395.07ZM333,237.85c-.44-4.42,7.34-9.3,15.68-11a55,55,0,0,1,23.66.67,69.62,69.62,0,0,1,23,10.13c4.36,2.95,8.27,6.27,9,10.38a4.63,4.63,0,0,1-1.15,4.19c-1.21,1.34-3.33,2.43-5.34,3.51-5,2.67-9.86,5.52-13.3,8.78s-5.4,7-4.22,10.09c1.25,3.36,5.82,5.67,8.33,8.66s1.95,7.69-4.12,10a32.3,32.3,0,0,1-6,1.41,45.88,45.88,0,0,1-18.49-.79,8.07,8.07,0,0,1-4.9-4.5c-1.44-3.42-.29-7.85.76-12,1-3.79,1.86-7.93.42-11.11-1.21-2.67-4.2-4-5.23-6.79-.7-1.89-.38-4.2-.52-6.33C350,243.73,333.87,246.66,333,237.85Zm-32.21,33.62c5.58-4.12,14.71-6.51,23.09-7.19,11.52-.9,23.24,1.6,25.37,7.39,1.86,5-3.67,10.93-3.49,16.25.23,6.86,9.7,11.32,18.58,15.18q14.55,6.3,29.07,12.59c11,4.78,22.7,10.32,22.71,18.87a7.9,7.9,0,0,1-2.86,6.11c-3.35,3.07-9.6,5-15.54,6-10.92,1.79-17.59.31-27.37-1-2-.28-4.45-.55-5.52-.83-.55-.15-2.45-.37-2.45-.37-6.08-1-7.93-1.27-12.37-3.37-2.86-1.37-5.28-3.17-5.41-5.47s1.88-4.61,2-6.86-1.79-4.39-3.71-6.28c-2.71-2.6-5.61-5.25-10.42-6.66-5-1.5-11.59-1.48-17.88-1.44s-12.85.09-17.95-1.35-8.31-4.86-5.71-8.35c1.35-1.8,3.94-3.33,6-5,5.87-4.77,6.59-10.83,1.76-14.59-1.31-1-3-1.9-3.74-3.11-1-1.68-.08-3.76,1.25-5.68A19.73,19.73,0,0,1,300.82,271.47Zm13.43,113.77c1.31,2.76,2.54,6-1.12,8.78a23.87,23.87,0,0,1-7,3.1,35.84,35.84,0,0,1-20.48,1.31c-4.08-1.07-9.2-4.19-13.08-5.36-2.74-.85-6.61-1.56-9.46-2.32s-5.09-2.3-4.47-4.23c.76-2.36,5.06-4.21,8.34-6.11,8.4-4.92,11-12.25,5.89-16.81-1.6-1.42-3.83-2.59-5.14-4.13s-1.48-3.65.84-5.33c4-2.85,11.13-2.25,17-3.52,8.14-1.75,13.08-7.1,20.89-9.53,8-2.48,16.53-1.28,23.6.25,7.59,1.67,15,3.65,20.34,6.86S358.84,356,357,361s-9.35,10.17-18.38,11.63c-3.92.65-7.78.6-11.69.91s-8.22,1.16-11,3C312,379.13,312.92,382.51,314.25,385.24ZM157.1,335.65a34.7,34.7,0,0,0-12.61-7.4c-4.76-1.7-10.29-2.88-14.59-4.88s-7.42-5.12-5.84-8.66c1.37-3.09,6.15-5.94,11.49-7.57a59.42,59.42,0,0,1,16.7-2.27c10.84-.14,20.93,1.56,28.6,4.85,3,1.26,5.67,2.89,5.84,5.17.14,1.64-1.06,3.38-1.89,5.08-1.68,3.51-1.36,7.48,3.57,9,3.41,1,8.17.7,12.16,1.2s7.34,2.79,4.76,5a27.57,27.57,0,0,1-3.37,2c-3.82,2.41-3.47,5.56-3.63,8.37-.24,4-2.11,8.17-5.45,12.13a6.38,6.38,0,0,1-.91,1.09c-6.33,4.68-11.15,10.87-20.62,13-6.4,1.41-12.45-.33-15.72-2.9-4-3.15-5.06-7.57-2.87-11.93,2.08-4.15,6.95-8.22,8-12.36C161.53,341.27,159.77,338.24,157.1,335.65ZM212,301c1.79-4.91,11.46-9.31,20.37-9.92s16.51,2.06,19.95,6c2.86,3.29,3.19,7.33,4.81,11a24,24,0,0,0,8.61,9.78,22.76,22.76,0,0,0,7.78,3.53c7.26,1.68,16.74.15,25.52-.86a94.45,94.45,0,0,1,18.5-.69c5.84.52,11.13,2.07,13.74,4.8,1.82,1.9,3,5.05.26,7.25s-7.8,2.47-11.18,1.4a7.79,7.79,0,0,0-2.08-.11,71.91,71.91,0,0,0-16.66,3.13c-6.47,2.16-11.89,5.33-18.24,7.63s-14.67,3.58-19.31,1.43c-6.64-3-1.05-10.24-4.65-14.68-2.56-3.16-9.29-4.37-15.8-4.93a94.69,94.69,0,0,0-15.83-.15c-5.19.45-10.47,1.46-15.56,1.54s-10-.82-13.35-2.55c-2.3-1.17-4-3-2.62-5,2-2.85,8.83-4,12.45-6.5C213.93,309.51,210.45,305.13,212,301Zm-12.86,65.94c2.9-7.48,5.76-14.93,8.66-22.41,1.08-2.79,2.22-5.68,5.25-8.25,4-3.37,11-5.77,17.6-6s12.23,1.77,14.07,4.92c1.21,2.08.85,4.54,1.17,6.82.45,3.39,2.41,6.51,5.67,9.06,2,1.57,4.5,3.57,2.13,5.58s-7.22,2-11.17,2.55a31.18,31.18,0,0,0-16.78,7.75c-3.72,3.56-5.46,7.42-7.11,11.19l-3.73,8.44a14.14,14.14,0,0,1-3.37,5.21c-3.53,3.25-10.69,5.37-16.84,5.39s-12-1.6-14.12-4.51a6.52,6.52,0,0,1-.49-1.2c-.13-2.67,1.87-4.28,4.73-6.88,1.89-1.71,4.34-3.27,6.31-5C195.71,375.64,197.46,371.2,199.11,366.91Zm-1.47,36.29c2.4-1.17,5.64-1.77,8.38-2.61,9.08-4.8,16-10.83,19.5-17,1.92-3.44,2.83-6.91,4.87-10.36a23,23,0,0,1,11-9.33,9.6,9.6,0,0,1,2.61-.77,9.18,9.18,0,0,1,3.3.36c6.19,1.53,12.86,3.41,14.17,7.22,1.11,3.18-1.94,6.92-6.11,10-3.87,2.87-9.1,5.85-9.18,9,0,2,2.14,3.56,4.84,4.62,6,2.32,14.39,2.55,21.37,4.09s12.88,5.41,9.59,9.92c-4.24,5.82-19.28,7.61-25.87,13-2.56,2.08-3.59,4.52-6.35,6.53-4.54,3.31-12.78,4.57-18.89,3.74a27.78,27.78,0,0,1-13.84-6c-3.44-2.69-6.28-5.68-10.59-7.95-3.65-1.92-8.35-3.32-11.05-5.71S192.78,405.54,197.64,403.2Zm24.7-144.86a6.89,6.89,0,0,1,.32-9.47c4.52-5.12,15.81-8.17,25.18-8.23s17.29,2.16,24.85,4.36c11.12,3.24,23,7.1,25.16,14.29a3.35,3.35,0,0,1-.21,2.88,12.33,12.33,0,0,1-3.15,2.8c-6.89,4.92-13.8,10.36-14.79,15.9-.75,4.1,1.87,7.76,5.37,10.88,1.63,1.48,3.51,3.19,2.1,5.13-1,1.41-3.51,2.48-5,3.81-3.38,3.08-1,7.19-6.12,9.54-4.38,2-10.24.47-11.51-2s.19-5.49.38-8.26c.29-4.4-2.86-8.39-8.55-10.8-3.77-1.58-9-3.25-7.44-6.22a15.33,15.33,0,0,1,1.93-2.18c3.32-3.56,2.23-7.68-2.51-9.62-6.11-1.67-10.56-3.81-15.77-6.12C228.46,263.14,224.56,261.07,222.34,258.34ZM115.12,296.65c-1.17-.68-2.22-1.52-2-2.58.37-1.88,4.32-3.33,6.15-5.14,3.1-3.07-.71-5.95-4.5-7.86-3.53-1.76-7.25-3.49-9.55-5.85-3.5-3.6-3.31-8.53.53-13S117,253.88,125.21,252c9-2.06,19.87-1.13,21.87,3.37a9.57,9.57,0,0,1,.34,4.1c-.13,6.55,4.69,13.13,15.76,14.52,7.27.92,15.74-.54,23.8-1.47a164.07,164.07,0,0,1,43.14.6c6.8,1.07,14,3.48,12.67,7.71-.91,2.88-5.73,5.5-10.79,6.86a78.78,78.78,0,0,1-15.65,2c-3.36,1.29-10,3.87-11.92,6.37-1.52,2-.81,4-.67,5.93s-.69,4.35-3.94,5.71a13.93,13.93,0,0,1-9.15.23c-2.48-.84-4.06-2.24-5.89-3.46-4.89-3.28-12.05-5.5-20.46-5.79-11-.39-23.16,2.49-34,1.93C124.25,300.27,118.9,298.87,115.12,296.65ZM94.63,366.7c-2.51-1.2-5.49-3.22-6.86-5.79s-.16-5.79,3.1-8.44c4-3.29,11.44-6.43,10.6-9.8-.33-1.35-2.07-2.31-3.74-3.21q-6.21-3.25-12.4-6.57c-2.47-1.32-5.08-2.84-4.74-5,.26-1.6,2.22-3.23,4.56-4.52,7.06-3.82,18.18-4.84,24.37-2.24,4,1.69,5.81,4.51,9,6.63,3.83,2.5,9.52,3.94,15.08,5.32s11.24,2.8,15.14,5.28,5.64,6.3,2.69,10c-2.13,2.61-6.4,4.88-7.92,7.56s-.79,5.69-5,7.25c-2.8,1-5.93.55-8.94.67-5.7.21-11.22,2.55-16.88,4S98.43,368.52,94.63,366.7Zm52,76.67c-5.06,2.53-11.12,1.53-17.27,2.39-2.62.38-5.12.11-7.72.24s-5.76,1-6.74,2.36a1.81,1.81,0,0,0,.06,2.14c.87,1.44,2.71,2.56,3.75,3.93s1.14,3.3-1.07,4.7c-2.67,1.7-7.15,1.75-10.25,1.07-9.32-2-12.3-8.12-13.45-13.87s-1.46-12-7.83-16.06c-5.54-3.5-14.69-4.67-22.47-6.71s-15-5.81-13.32-11.1c.84-2.67,3.84-5.3,7.36-7.59a52.52,52.52,0,0,1,19.65-7.74c7.47-1.25,15.4-.46,19,2.53,2.41,2,2.79,4.68,3.91,7.09s3.43,4.82,8,5.28c6,.64,13.19-2.39,19.5-2.19,6.63.21,9.71,3.75,11.93,7,3.1,4.45,6.17,8.9,9.27,13.34,1.4,2,2.83,4.1,2.84,6.42S150.16,441.57,146.58,443.37ZM151,417.59c-2.3-9-10.28-17-22.42-22.26-6.23-2.69-13.6-4.76-18.22-8.33s-5.63-9.28.74-13.55c6.58-4.43,18.07-5.27,26.06-3.65s13.65,5,20.45,7.61a18.12,18.12,0,0,0,7.11,1.4c7.08-.2,12.19-6.24,19.43-7.21.78-.11,3-.22,3.67.83,1.15,1.9-2.45,6.23-5.27,8.75s-6.91,4.63-10.08,7-5.45,5.51-3.66,7.72c2.77,3.46,13.61,2.93,15.83,6.55,2.09,3.4-4.8,7.68-5.6,11.61-1.08,5.26,9,9,5.17,14.21-2.08,2.85-8,4.95-13.22,5.17a22.62,22.62,0,0,1-12.73-3,13.31,13.31,0,0,1-5.29-5.56C151.89,422.58,151.67,420,151,417.59Zm140.13,29.57c-8.25,6.23-21.9,10-34.58,11.13-9.88.88-20.77.65-29,4.63-1.84.86-3.43,1.92-5.39,2.66-3.74,1.44-8.17,1.59-12.16,1.5-6-.13-12.52-.9-14.62-3.79-1.54-2.14-.26-4.86.37-7.41s.2-5.39-3.55-6.38-8.68.27-13.21,1a53.45,53.45,0,0,1-17.27,0c-4.85-.87-9.27-3-8.42-6.05.74-2.68,5.47-5.18,10.35-6.2a46.72,46.72,0,0,1,14.31-.37l1.31-.33c5.6-2.32,9.83-5.79,11.32-9.27.71-1.65.86-3.33,2.06-4.95a9.65,9.65,0,0,1,6.92-3.4,6.35,6.35,0,0,1,6.18,3.46c2.39,4.11,4.85,8.31,10.05,11.3s13.8,4.53,22.27,2.55c5.3-1.24,9.77-3.63,14.62-5.52a74.4,74.4,0,0,1,24.89-4.85c5.05-.08,10,.42,13.68,1.84C300.37,432.23,299.42,440.93,291.16,447.16Zm101.76-40c-1.92,3-5.74,5.61-9.72,8.07a35.61,35.61,0,0,1-9.43,4.37,34.1,34.1,0,0,1-13.13.6,33.32,33.32,0,0,1-10.22-3c-2.56-1.28-4.74-2.92-8.3-3.37-5.92-.78-14.06,2.88-14.32,6.42-.22,3.08,4.41,5.21,4,8.3-.35,2.7-4.4,5.27-8.18,7.5-2.67,1.57-5.75,3.28-9.26,3.59a9.24,9.24,0,0,1-7.49-2.3c-1.37-1.48-1.76-3.26-2.56-4.92-1.57-3.15-4.81-5.86-9.29-7.76l-.94-.17c-4.21-2.73-13-1.51-20.26-1.46-1.52,0-3.26-.14-3.54-.92-.14-.38.13-.81.43-1.2,3.83-4.72,16.44-7,18.9-11.81.72-1.38.42-2.81,1.6-4.14,1.76-2,6.14-3.08,9.91-3.41s7.5-.21,11.25-1c5.24-1.11,9.69-4.1,10.36-7,1-4.14-5-7.54-2-11.65,1.85-2.51,6.61-4.36,11.23-5.29s9.28-1.12,13.93-1.7a74.78,74.78,0,0,1,9-.92c5.95-.06,10.38,2,14.13,4a92.78,92.78,0,0,1,19.39,14C392.86,396.49,396.56,401.68,392.92,407.21Z" style="fill:#fff"></path></g></g></g><g id="freepik--money-icons--inject-18"><g id="freepik--money-icon--inject-18"><path d="M40.33,239.88l2.07,3.62-4.9,2.8-2.07-3.63c-3.64,1.43-7.93,1.62-11.25-2.17l5.35-5.24a4.17,4.17,0,0,0,5.57.93c1.62-.92,2.34-2.2,1.52-3.64-1.32-2.32-4.19-.85-7.84.07-3.92.95-8,1.17-10.68-3.6-2.44-4.28-1.21-8.22,2.64-11.23l-2.07-3.63,4.94-2.81L25.68,215c4.2-1.58,7.82-.92,10.6,1.83l-5.07,5c-1.2-1.4-3-1.7-5.18-.46s-2.28,2.51-1.65,3.61c1,1.79,2.77,1.31,6.57.25,4-1.07,9.18-2.39,12.27,3C45.71,232.64,44.2,236.8,40.33,239.88Z" style="fill:#f0f0f0"></path><path d="M47.4,156.55l-4.94-.8.49-3c-2.38-.83-5-2.64-5.2-6.52l0-.48,6.31-.62v.55a2.46,2.46,0,0,0,2.25,2.51q1.7.27,1.89-.93c.17-1.08-.82-1.54-2.74-2.34-.43-.18-.88-.37-1.34-.58-2.66-1.24-5.27-3.08-4.6-7.27.56-3.45,2.86-5.38,6.53-5.46l.49-3,5,.8-.48,3a7.08,7.08,0,0,1,5,6l.06.5-6.08.64,0-.54c-.05-1.43-1.25-1.93-2.25-2.09-1.17-.19-1.82.1-1.94.85-.16,1,.47,1.34,3.23,2.52,2.59,1.15,6.5,2.88,5.73,7.68-.55,3.43-3,5.43-6.83,5.55Zm-3.79-1.63,3,.48.46-2.85h.43c2.06,0,5.6-.58,6.27-4.72s-2.56-5.46-5.14-6.6-4.12-1.76-3.82-3.6c.08-.5.54-2.09,3.09-1.67a3.27,3.27,0,0,1,3,2.51l4-.42c-.43-2.33-2-4-4.63-4.82l-.41-.14.46-2.85-3-.49-.46,2.87h-.43c-2.37,0-5.33.73-6,4.62-.54,3.33,1.22,4.89,4,6.21.44.2.89.38,1.31.56,1.87.78,3.64,1.51,3.33,3.42-.22,1.37-1.35,2-3,1.76a3.44,3.44,0,0,1-3-3l-4.31.42c.35,3.21,2.82,4.64,4.88,5.28l.41.13Z" style="fill:#f0f0f0"></path><path d="M324.93,183.77,323.67,181c-2.44.62-5.66.6-7.95-2.54l-.28-.38,4.91-4,.31.45a2.44,2.44,0,0,0,3.26.84,2.21,2.21,0,0,0,1.05-.84,1,1,0,0,0,0-1c-.45-1-1.54-.83-3.57-.43-.46.09-.94.19-1.45.27-2.89.44-6.09.36-7.85-3.5-1.43-3.13-.56-6.08,2.39-8.16L313.23,159l4.58-2.1,1.27,2.78a7,7,0,0,1,7.48,2.23l.33.39-4.71,3.9-.31-.44a2.28,2.28,0,0,0-3-.49c-1.08.49-1.47,1.09-1.15,1.79.43.94,1.32.82,4.08.3s7-1.22,9,3.21c1.44,3.15.49,6.2-2.6,8.41l1.26,2.76Zm-.71-4,1.21,2.64,2.73-1.25L327,178.57l.36-.24c1.72-1.13,4.34-3.59,2.6-7.4s-5.17-3.12-8-2.63-4.4.82-5.17-.88c-.21-.46-.71-2,1.64-3.11a3.28,3.28,0,0,1,3.91.41l3.12-2.59c-1.65-1.7-3.85-2.18-6.53-1.43l-.41.11-1.2-2.63-2.77,1.26,1.21,2.64-.37.23c-2,1.29-4,3.58-2.38,7.15,1.4,3.08,3.73,3.4,6.79,2.93.49-.08,1-.17,1.4-.26,2-.39,3.88-.76,4.68,1a2,2,0,0,1,0,1.89,3.17,3.17,0,0,1-1.51,1.25,3.46,3.46,0,0,1-4.17-.76l-3.34,2.74c2.07,2.47,4.91,2.3,7,1.69Z" style="fill:#f0f0f0"></path><path d="M474.58,203.1l-1.26-2.76c-2.44.62-5.66.6-7.95-2.54l-.28-.38,4.91-4,.31.46a2.45,2.45,0,0,0,3.25.84,2.26,2.26,0,0,0,1.06-.84,1,1,0,0,0,0-1c-.45-1-1.54-.83-3.57-.43-.46.09-.94.19-1.45.27-2.89.43-6.09.36-7.85-3.5-1.43-3.13-.56-6.08,2.39-8.17l-1.26-2.76,4.58-2.1,1.27,2.77a7.07,7.07,0,0,1,7.48,2.24l.33.38-4.71,3.91-.31-.44a2.27,2.27,0,0,0-3-.49c-1.08.49-1.47,1.09-1.15,1.78.43.95,1.32.83,4.08.31s7-1.22,9,3.2c1.44,3.16.49,6.21-2.6,8.41l1.26,2.77Zm-.71-4,1.21,2.64,2.73-1.25-1.21-2.63.36-.24c1.72-1.13,4.34-3.59,2.6-7.4s-5.17-3.12-7.95-2.63-4.4.81-5.17-.88c-.21-.46-.71-2,1.64-3.11a3.28,3.28,0,0,1,3.91.41l3.12-2.59c-1.65-1.7-3.85-2.18-6.53-1.44l-.41.12-1.2-2.63-2.77,1.26,1.21,2.64-.37.23c-2,1.29-4,3.58-2.39,7.15,1.41,3.07,3.74,3.39,6.8,2.93.49-.08,1-.17,1.4-.26,2-.39,3.87-.76,4.68,1a2,2,0,0,1,0,1.9A3.17,3.17,0,0,1,474,195.6a3.46,3.46,0,0,1-4.17-.76l-3.34,2.74c2.07,2.47,4.91,2.29,7,1.68Z" style="fill:#f0f0f0"></path><path d="M249.36,57l.54-3c-2.35-.89-5-2.75-5.06-6.64v-.47l6.32-.49V47a2.46,2.46,0,0,0,2.2,2.55,2.22,2.22,0,0,0,1.34-.08,1,1,0,0,0,.56-.81c.2-1.07-.78-1.56-2.68-2.39-.43-.19-.88-.39-1.34-.61-2.62-1.3-5.2-3.18-4.44-7.37.61-3.38,3-5.3,6.63-5.32l.55-3,5,.9-.55,3A7.05,7.05,0,0,1,263.23,40l0,.51-6.09.51v-.54c0-1.44-1.21-1.95-2.2-2.13-1.17-.22-1.83,0-2,.8-.19,1,.61,1.44,3.17,2.59s6.45,3,5.58,7.8c-.62,3.41-3.15,5.37-6.95,5.41l-.54,3ZM251,53.38l-.52,2.85,2.95.54.52-2.85h.43c2.05.06,5.61-.46,6.36-4.58s-2.45-5.51-5-6.71S251.7,40.8,252,39c.09-.49.59-2.07,3.13-1.61a3.28,3.28,0,0,1,3,2.57l4-.33c-.38-2.34-1.91-4-4.53-4.92l-.41-.14.52-2.84-3-.55L254.24,34h-.43c-2.37-.09-5.34.63-6.05,4.49-.6,3.33,1.12,4.92,3.9,6.29.44.22.88.41,1.3.59,1.86.82,3.61,1.59,3.26,3.49a2,2,0,0,1-1.11,1.53,3.17,3.17,0,0,1-2,.17,3.47,3.47,0,0,1-3-3l-4.31.33c.28,3.21,2.72,4.7,4.77,5.38Z" style="fill:#f0f0f0"></path><path d="M71.06,203.62,70.53,206l-3.2-.72.53-2.37c-2.14-.81-4.07-2.41-4-5.34l4.36-.17a2.42,2.42,0,0,0,2,2.58c1.06.24,1.87,0,2.08-1,.34-1.51-1.48-2-3.41-3s-3.9-2.61-3.2-5.73c.62-2.8,2.7-4,5.53-3.81l.53-2.38,3.24.72-.53,2.38a5.47,5.47,0,0,1,3.86,4.94l-4.16.19c0-1.08-.63-1.91-2.06-2.23s-2,.19-2.13.91c-.26,1.17.69,1.65,2.74,2.68s4.9,2.56,4.11,6.11C76.22,202.6,73.93,203.81,71.06,203.62Z" style="fill:#f0f0f0"></path><path d="M248.45,164.23l-1.25,4.29-5.78-1.68,1.25-4.28c-3.81-1.72-7.15-4.87-6.72-10.23l8,.19a4.46,4.46,0,0,0,3.43,5c1.91.55,3.42.15,3.92-1.55.79-2.74-2.47-3.85-5.88-6-3.65-2.29-6.83-5.22-5.19-10.85,1.46-5.06,5.4-7,10.56-6.34l1.24-4.28,5.84,1.69-1.25,4.29c4.34,2,6.52,5.3,6.49,9.49l-7.63-.15c.18-2-.92-3.56-3.5-4.31-2.43-.71-3.62.12-4,1.41-.61,2.12,1.06,3.11,4.7,5.22,3.82,2.29,8.66,5.26,6.81,11.66C258,163,253.68,164.91,248.45,164.23Z" style="fill:#f0f0f0"></path><path d="M313.15,98.18l.81,2.63-3.55,1.1-.81-2.63c-2.55.41-5.34-.08-6.94-3l4.19-2.62a2.75,2.75,0,0,0,3.46,1.4c1.17-.36,1.82-1.08,1.49-2.13-.52-1.68-2.58-1.15-5.06-1.07-2.65,0-5.28-.38-6.36-3.84-1-3.1.4-5.46,3.3-6.85l-.81-2.63,3.58-1.11.81,2.63c2.93-.42,5.16.52,6.57,2.69l-4,2.52c-.58-1.07-1.69-1.53-3.28-1s-1.82,1.3-1.57,2.09c.4,1.3,1.6,1.24,4.19,1.1,2.74-.12,6.25-.24,7.47,3.7C317.64,94.29,316.07,96.76,313.15,98.18Z" style="fill:#f0f0f0"></path><path d="M473.91,122.63l-.67,3.72-5-.9.67-3.72c-3.36-1.11-6.44-3.47-6.55-8l6.75-.54a3.77,3.77,0,0,0,3.32,3.88c1.65.29,2.89-.18,3.16-1.65.42-2.37-2.42-3-5.48-4.5-3.26-1.6-6.19-3.79-5.32-8.67.79-4.38,3.93-6.41,8.33-6.26l.67-3.71,5.06.91-.67,3.71c3.82,1.33,5.95,3.89,6.29,7.41l-6.43.56c0-1.67-1.09-2.93-3.33-3.33s-3,.43-3.23,1.54c-.33,1.84,1.16,2.52,4.41,4,3.41,1.58,7.75,3.65,6.75,9.2C481.82,120.73,478.37,122.74,473.91,122.63Z" style="fill:#f0f0f0"></path></g></g><g id="freepik--Clouds--inject-18"><path id="freepik--Cloud--inject-18" d="M201.24,62.68c0-3.14-3.43-5.31-7.32-5.68-4.59-.43-7.84,1.61-7.95,5.22-3-1.23-6.16-.44-5.92,2.85-.78-.89-3.7-.87-4.74-.62a4.09,4.09,0,0,0-2.61,2.23,3,3,0,0,0-.27,1.68c-1.75-.57-5.73-.92-6.72.68-1.77,2.86,5.3,2.95,6.72,2.08.31,2.22,7.9,2.59,9.74.54,1.44,1.45,3.5,1.77,5.73,1.9,3.76.22,6.06-1,9-2.55,3.19,2.71,8.71,2.75,11.58-.34.73.69,2.75.91,4.37.52,1.06-.25,1.3-.7,1.3-.7a9.09,9.09,0,0,0,2,.58c2.09.44,6,0,4.34-1.9a5,5,0,0,0-3.45-.85c-.9-1.78-4.55-3.48-6.65-2-.08-2.16-2.06-3.86-4.84-4.29C204.55,61.92,202.31,61.79,201.24,62.68Z" style="fill:#f5f5f5"></path><path id="freepik--cloud--inject-18" d="M94.3,47.12A9.63,9.63,0,0,0,91,46.51c-1.06-.08-1.4-.29-1.6-.52A7.82,7.82,0,0,0,80,43.21a6,6,0,0,0-7.09-4c.11-3.3-4.11-6.86-7.9-7.66s-6.81-.45-8.88,1.94c-2.22-4.34-10.93-5.56-15.64-3.27-2.71,1.32-5,2.68-6.13,5.16a10.33,10.33,0,0,0-1,4.94c-1.84-1.62-5.51-2.06-8-1.11-2.64,1-2.84,3-3,5a9.33,9.33,0,0,0-4.81-.09C15.94,44.65,15,46,15.21,47c-1.32-.07-4.46,1-4.1,2.39.41,1.56,4,1.4,5.33,1.35a24.85,24.85,0,0,0,3.75-.59,5.69,5.69,0,0,0,1.95.37c2.28,0,3.25-1,3.62-1.84,1.11,2.34,5.08,4.13,7.88,4.85,5.28,1.35,12.75.53,16-3.42A5.94,5.94,0,0,0,51.21,52a9.2,9.2,0,0,0,4.89,2c2.16.2,8,.48,9.62-3,1.16,2.29,6.34,3.34,10.28,2.78a16.23,16.23,0,0,0,4.41-1.33c1-.5,1.62-1,2.54-1.52a2.08,2.08,0,0,1,2.16-.15,13,13,0,0,0,8.6,0C95.91,49.9,96.37,48.05,94.3,47.12Z" style="fill:#f5f5f5"></path><path id="freepik--cloud--inject-18" d="M427.23,33.77a9.94,9.94,0,0,0-3.28-.6c-1.07-.09-1.4-.3-1.61-.53a7.84,7.84,0,0,0-9.4-2.78,6,6,0,0,0-7.09-4c.12-3.31-4.1-6.86-7.89-7.67-3.64-.77-6.81-.45-8.89,1.95-2.22-4.34-10.92-5.56-15.63-3.27-2.71,1.32-5,2.67-6.14,5.16a10.44,10.44,0,0,0-1,4.93c-1.83-1.62-5.51-2.05-8-1.1-2.64,1-2.85,3-3,5a9.22,9.22,0,0,0-4.81-.09c-1.66.5-2.62,1.8-2.4,2.86-1.31-.07-4.45,1-4.09,2.38.4,1.56,4,1.41,5.33,1.36a25,25,0,0,0,3.75-.59,5.83,5.83,0,0,0,1.95.37c2.28,0,3.25-1,3.61-1.84,1.12,2.34,5.08,4.13,7.89,4.85,5.27,1.35,12.74.52,16-3.42a6,6,0,0,0,1.58,1.91,9,9,0,0,0,4.88,2c2.17.21,8,.48,9.63-3C399.81,40,405,41,408.93,40.48a16.34,16.34,0,0,0,4.41-1.33,25.66,25.66,0,0,0,2.53-1.52,2.13,2.13,0,0,1,2.16-.15,12.82,12.82,0,0,0,8.6,0C428.83,36.55,429.29,34.71,427.23,33.77Z" style="fill:#f5f5f5"></path><path id="freepik--cloud--inject-18" d="M480.68,52.13a6.24,6.24,0,0,0-2.07-.38c-.68,0-.89-.19-1-.33a5,5,0,0,0-6-1.76,3.8,3.8,0,0,0-4.49-2.54c.08-2.09-2.6-4.34-5-4.86s-4.31-.28-5.62,1.23c-1.41-2.74-6.92-3.52-9.91-2.06-1.72.83-3.17,1.69-3.88,3.26a6.58,6.58,0,0,0-.65,3.13,5.48,5.48,0,0,0-5-.7c-1.68.65-1.81,1.91-1.89,3.19a5.9,5.9,0,0,0-3-.05c-1.05.31-1.66,1.14-1.52,1.81-.83,0-2.82.63-2.59,1.51s2.53.89,3.37.86a16.08,16.08,0,0,0,2.38-.38,3.58,3.58,0,0,0,1.23.24,2.26,2.26,0,0,0,2.3-1.17c.7,1.48,3.21,2.62,5,3.07,3.34.86,8.07.34,10.13-2.16a3.7,3.7,0,0,0,1,1.21,5.81,5.81,0,0,0,3.09,1.25c1.38.13,5.06.31,6.1-1.88.74,1.46,4,2.12,6.51,1.76a10,10,0,0,0,2.79-.84,17.55,17.55,0,0,0,1.61-1,1.34,1.34,0,0,1,1.37-.1,8.15,8.15,0,0,0,5.45,0C481.7,53.89,482,52.73,480.68,52.13Z" style="fill:#f5f5f5"></path></g><g id="freepik--Blocks--inject-18"><g id="freepik--blocks--inject-18"><g style="opacity:0.30000000000000004"><polygon points="119.53 355.09 119.53 366.28 73.84 392.78 28.16 366.52 28.16 355.09 73.84 381.46 119.53 355.09" style="fill:#9627BA"></polygon><polygon points="229.2 376.24 229.2 387.43 183.51 413.94 137.83 387.68 137.83 376.24 183.51 402.62 229.2 376.24" style="fill:#9627BA"></polygon><polygon points="338.83 397.3 338.83 408.49 293.14 435 247.46 408.74 247.46 397.3 293.14 423.68 338.83 397.3" style="fill:#9627BA"></polygon><polygon points="448.46 375.92 448.46 387.11 402.77 413.61 357.09 387.35 357.09 375.92 402.77 402.3 448.46 375.92" style="fill:#9627BA"></polygon></g><polygon points="28.16 333.99 73.84 360.36 119.53 333.99 73.84 307.65 28.16 333.99" style="fill:#fafafa"></polygon><polygon points="73.84 360.36 73.84 381.46 119.53 355.09 119.53 333.99 73.84 360.36" style="fill:#f0f0f0"></polygon><polygon points="28.16 333.99 73.84 360.36 73.84 381.46 28.16 355.09 28.16 333.99" style="fill:#e0e0e0"></polygon><polygon points="137.8 334.01 183.49 360.38 229.17 334.01 183.49 307.67 137.8 334.01" style="fill:#fafafa"></polygon><polygon points="183.49 360.38 183.49 402.57 229.17 376.19 229.17 334.01 183.49 360.38" style="fill:#f0f0f0"></polygon><polygon points="137.8 334.01 183.49 360.38 183.49 402.57 137.8 376.19 137.8 334.01" style="fill:#e0e0e0"></polygon><polygon points="247.45 318.18 293.13 344.56 338.82 318.18 293.13 291.84 247.45 318.18" style="fill:#fafafa"></polygon><polygon points="293.13 344.56 293.13 423.68 338.82 397.3 338.82 318.18 293.13 344.56" style="fill:#f0f0f0"></polygon><polygon points="247.45 318.18 293.13 344.56 293.13 423.68 247.45 397.3 247.45 318.18" style="fill:#e0e0e0"></polygon><polygon points="357.09 219.17 402.77 245.54 448.46 219.17 402.77 192.83 357.09 219.17" style="fill:#fafafa"></polygon><path d="M448.46,219.17l-11.55-6.37-11.49-6.46c-3.84-2.14-7.64-4.35-11.46-6.52l-11.44-6.55H403l-11.44,6.55c-3.82,2.17-7.62,4.38-11.46,6.52l-11.49,6.46-11.55,6.37,11.29-6.81,11.35-6.71c3.78-2.25,7.59-4.43,11.39-6.64l11.4-6.63.25-.15.26.15,11.4,6.63c3.79,2.21,7.61,4.4,11.38,6.65l11.35,6.71Z" style="fill:#e6e6e6"></path><polygon points="402.77 245.54 402.77 402.36 448.46 375.98 448.46 219.17 402.77 245.54" style="fill:#f0f0f0"></polygon><polygon points="357.09 219.17 402.77 245.54 402.77 402.36 357.09 375.98 357.09 219.17" style="fill:#e0e0e0"></polygon></g></g><g id="freepik--Coin--inject-18"><g id="freepik--coin--inject-18"><ellipse cx="393.89" cy="134.06" rx="35.19" ry="52.71" transform="translate(-21.04 164.93) rotate(-23.05)" style="fill:#9627BA;opacity:0.05"></ellipse><ellipse cx="393.89" cy="134.06" rx="41.85" ry="62.7" transform="translate(-21.04 164.93) rotate(-23.05)" style="fill:#9627BA;opacity:0.05"></ellipse><ellipse cx="393.89" cy="134.06" rx="48.61" ry="72.81" transform="translate(-21.04 164.93) rotate(-23.05)" style="fill:#9627BA;opacity:0.05"></ellipse><g id="freepik--coin--inject-18"><g id="freepik--coin--inject-18"><path d="M374.29,104l-1.92-4,8.37-4.83h0a13.46,13.46,0,0,1,3.16-1.32c.39-.1.78-.19,1.17-.26a15.55,15.55,0,0,1,5.9.17,18.1,18.1,0,0,1,2.12.57,22.35,22.35,0,0,1,2.2.84,31.38,31.38,0,0,1,2.82,1.44c1,.58,2,1.23,2.93,1.93.73.53,1.45,1.1,2.16,1.7,10.39,8.77,18.56,24.4,20.64,39.44q.21,1.53.33,3.06.19,2.17.18,4.32c0,1.16-.05,2.29-.14,3.38s-.18,1.86-.32,2.74-.3,1.73-.49,2.55h0a24.52,24.52,0,0,1-2.43,6.45c-.22.4-.46.79-.7,1.16a15.57,15.57,0,0,1-3.71,4,13.23,13.23,0,0,1-1.36.89h0l-7.92,4.57-1.75-3.65c-.46-.11-.93-.23-1.41-.37a25.38,25.38,0,0,1-5.5-2.44,34.29,34.29,0,0,1-3.24-2.15,41.47,41.47,0,0,1-4-3.39c-8.67-8.34-15.5-21.4-18-34.4a58,58,0,0,1-.81-5.77c-.15-1.59-.22-3.18-.22-4.74a40.23,40.23,0,0,1,.56-6.72A29.33,29.33,0,0,1,374.29,104Z" style="fill:#9627BA"></path><path d="M421.93,130.79l-17,9.8-2.24-6.46,17-9.82C420.55,126.44,421.3,128.6,421.93,130.79Z" style="fill:#fff;opacity:0.25"></path><path d="M380.74,95.17h0a13.46,13.46,0,0,1,3.16-1.32c.39-.1.78-.19,1.17-.26a15.55,15.55,0,0,1,5.9.17l.77.18L374.27,104l0,0-1.92-4Z" style="fill:#fff;opacity:0.25"></path><path d="M382.56,120l-2.23-2.69,25.46-14.66c.81.8,1.6,1.64,2.38,2.52Z" style="fill:#fff;opacity:0.25"></path><path d="M413.58,112.35l-22.06,12.74-2.43-6.35,20.54-11.87A62.26,62.26,0,0,1,413.58,112.35Z" style="fill:#fff;opacity:0.25"></path><path d="M380.74,95.17h0a13.46,13.46,0,0,1,3.16-1.32c.39-.1.78-.19,1.17-.26a15.55,15.55,0,0,1,5.9.17,18.1,18.1,0,0,1,2.12.57,22.35,22.35,0,0,1,2.2.84,31.38,31.38,0,0,1,2.82,1.44c1,.58,2,1.23,2.93,1.93.73.53,1.45,1.1,2.16,1.7,9.67,8.17,17.43,22.29,20.12,36.34L387.89,157a69.27,69.27,0,0,1-14.49-30.63,58,58,0,0,1-.81-5.77c-.15-1.59-.22-3.18-.22-4.74a40.23,40.23,0,0,1,.56-6.72,29.33,29.33,0,0,1,1.36-5.19l-1.92-4Z" style="fill:#fff;opacity:0.4"></path><path d="M407.28,172.81l-1.75-3.65c-.46-.11-.93-.23-1.41-.37a25.38,25.38,0,0,1-5.5-2.44,34.29,34.29,0,0,1-3.24-2.15,41.47,41.47,0,0,1-4-3.39,51,51,0,0,1-3.52-3.77l35.43-20.46c.2,1,.37,2.07.52,3.1s.25,2,.33,3.06q.19,2.17.18,4.32c0,1.16-.05,2.29-.14,3.38s-.18,1.86-.32,2.74-.3,1.73-.49,2.55h0a24.52,24.52,0,0,1-2.43,6.45c-.22.4-.46.79-.7,1.16a15.57,15.57,0,0,1-3.71,4,13.23,13.23,0,0,1-1.36.89h0Z" style="opacity:0.1"></path><path d="M421,162.18c-.22.4-.46.79-.7,1.16a15.57,15.57,0,0,1-3.71,4,13.23,13.23,0,0,1-1.36.89h0l-7.92,4.57-1.75-3.65-.07,0-.12-1.5,17.59-10.16A23.6,23.6,0,0,1,421,162.18Z" style="opacity:0.1"></path><path d="M363.42,121.07q0,2.34.21,4.74c.18,1.9.45,3.83.82,5.77,2.5,13,9.33,26,18,34.4a40,40,0,0,0,4,3.38,32.45,32.45,0,0,0,3.24,2.15,25.93,25.93,0,0,0,5.5,2.45,17.26,17.26,0,0,0,5.86.76,13.13,13.13,0,0,0,7.32-2.63,15.75,15.75,0,0,0,3.71-4c.24-.37.47-.76.7-1.16a25.17,25.17,0,0,0,2.43-6.44h0c.19-.81.35-1.66.49-2.54s.24-1.8.32-2.74c.09-1.09.13-2.22.14-3.39,0-1.42-.06-2.87-.18-4.32-.08-1-.19-2-.34-3.06-2.07-15-10.25-30.67-20.64-39.44-.71-.6-1.42-1.16-2.15-1.69a34.47,34.47,0,0,0-2.94-1.93,27,27,0,0,0-2.82-1.45,21.28,21.28,0,0,0-2.19-.84,19.83,19.83,0,0,0-2.13-.57,15.49,15.49,0,0,0-5.89-.16c-.4.07-.79.15-1.17.25a13.2,13.2,0,0,0-4.61,2.29,17,17,0,0,0-5.14,6.79,27.42,27.42,0,0,0-2,6.68A40.13,40.13,0,0,0,363.42,121.07Z" style="fill:#9627BA"></path><path d="M363.42,121.07q0,2.34.21,4.74c.18,1.9.45,3.83.82,5.77,2.5,13,9.33,26,18,34.4a40,40,0,0,0,4,3.38,32.45,32.45,0,0,0,3.24,2.15,25.93,25.93,0,0,0,5.5,2.45,17.26,17.26,0,0,0,5.86.76,13.13,13.13,0,0,0,7.32-2.63,15.75,15.75,0,0,0,3.71-4c.24-.37.47-.76.7-1.16a25.17,25.17,0,0,0,2.43-6.44h0c.19-.81.35-1.66.49-2.54s.24-1.8.32-2.74c.09-1.09.13-2.22.14-3.39,0-1.42-.06-2.87-.18-4.32-.08-1-.19-2-.34-3.06-2.07-15-10.25-30.67-20.64-39.44-.71-.6-1.42-1.16-2.15-1.69a34.47,34.47,0,0,0-2.94-1.93,27,27,0,0,0-2.82-1.45,21.28,21.28,0,0,0-2.19-.84,19.83,19.83,0,0,0-2.13-.57,15.49,15.49,0,0,0-5.89-.16c-.4.07-.79.15-1.17.25a13.2,13.2,0,0,0-4.61,2.29,17,17,0,0,0-5.14,6.79,27.42,27.42,0,0,0-2,6.68A40.13,40.13,0,0,0,363.42,121.07Z" style="fill:#fff;opacity:0.1"></path><path d="M415.1,141.3c.2,1,.38,2.08.52,3.12s.26,2.05.34,3.06c.12,1.45.18,2.9.18,4.32,0,1.17-.05,2.3-.14,3.39-.08.94-.18,1.86-.32,2.74s-.3,1.73-.49,2.54h0a25.17,25.17,0,0,1-2.43,6.44c-.23.4-.46.79-.7,1.16a15.75,15.75,0,0,1-3.71,4,13.13,13.13,0,0,1-7.32,2.63,17.26,17.26,0,0,1-5.86-.76,25.93,25.93,0,0,1-5.5-2.45,30.3,30.3,0,0,1-2.88-1.89Z" style="opacity:0.05"></path><path d="M414.7,162.29a23.25,23.25,0,0,1-1.94,4.63c-.23.4-.46.79-.7,1.16a15.75,15.75,0,0,1-3.71,4,13.18,13.18,0,0,1-5.93,2.48Z" style="opacity:0.05"></path><path d="M411.5,129.07a65.6,65.6,0,0,1,2.21,6.46l-30.83,30.84-.42-.39a49.46,49.46,0,0,1-3.78-4.09Z" style="fill:#fff;opacity:0.15"></path><path d="M401.42,111.62a60,60,0,0,1,3.94,5.47L371.42,151c-1.1-2.07-2.11-4.22-3-6.41Z" style="fill:#fff;opacity:0.15"></path><path d="M397.57,107.36c.81.8,1.61,1.65,2.39,2.54l-32.45,32.45c-.45-1.21-.88-2.44-1.26-3.67Z" style="fill:#fff;opacity:0.15"></path><path d="M363.5,118.72h0c0-.63.08-1.24.14-1.84l.06-.6c0-.21.05-.41.08-.61.06-.45.12-.89.2-1.32a27.42,27.42,0,0,1,2-6.68,17,17,0,0,1,5.14-6.79,13.2,13.2,0,0,1,4.61-2.29c.38-.1.77-.18,1.17-.25a15.49,15.49,0,0,1,5.89.16c.26,0,.52.12.78.19Z" style="fill:#fff;opacity:0.15"></path><path d="M370.14,125.1c0,13.87,8.09,29.89,18.32,36.7.44.29.88.57,1.32.82,10.85,6.27,19.64-.38,19.64-14.84s-8.79-31.27-19.64-37.53c-.44-.26-.88-.49-1.32-.7C378.23,104.54,370.14,111.22,370.14,125.1Z" style="fill:#9627BA"></path><path d="M370.14,125.1c0,13.87,8.09,29.89,18.32,36.7.44.29.88.57,1.32.82,10.85,6.27,19.64-.38,19.64-14.84s-8.79-31.27-19.64-37.53c-.44-.26-.88-.49-1.32-.7C378.23,104.54,370.14,111.22,370.14,125.1Z" style="opacity:0.4"></path><path d="M371,125.6q0,.68,0,1.35c.5,12.93,8,27.43,17.48,33.72l.26.17c.33.22.66.43,1,.62a16.2,16.2,0,0,0,5.9,2.14,9.94,9.94,0,0,0,10.37-5.28,20.68,20.68,0,0,0,2.43-8.94c0-.68.07-1.38.07-2.11s0-1.33-.06-2A38.83,38.83,0,0,0,408,141c-1.65-10-7-20.18-13.76-26.3a28.22,28.22,0,0,0-3-2.37c-.49-.33-1-.64-1.48-.92s-.85-.47-1.26-.68l-.35-.16a12.72,12.72,0,0,0-7.76-1.24c-4,.76-7,3.91-8.45,8.94A26.2,26.2,0,0,0,371,125.6Z" style="fill:#9627BA"></path><path d="M371,125.6q0,.68,0,1.35c.5,12.93,8,27.43,17.48,33.72l.26.17c.33.22.66.43,1,.62a16.2,16.2,0,0,0,5.9,2.14,9.94,9.94,0,0,0,10.37-5.28,20.68,20.68,0,0,0,2.43-8.94c0-.68.07-1.38.07-2.11s0-1.33-.06-2A38.83,38.83,0,0,0,408,141c-1.65-10-7-20.18-13.76-26.3a28.22,28.22,0,0,0-3-2.37c-.49-.33-1-.64-1.48-.92s-.85-.47-1.26-.68l-.35-.16a12.72,12.72,0,0,0-7.76-1.24c-4,.76-7,3.91-8.45,8.94A26.2,26.2,0,0,0,371,125.6Z" style="opacity:0.5"></path><path d="M374.16,125.14q0-.67,0-1.35a26.59,26.59,0,0,1,.94-7.32,14,14,0,0,1,4-6.78,10.78,10.78,0,0,1,1.3-.35,12.72,12.72,0,0,1,7.76,1.24l.35.16c.41.21.84.43,1.26.68s1,.59,1.48.92a28.22,28.22,0,0,1,3,2.37C401,120.83,406.36,131,408,141a38.83,38.83,0,0,1,.48,4.26c0,.67.06,1.34.06,2s0,1.43-.07,2.11a20.68,20.68,0,0,1-2.43,8.94,11.73,11.73,0,0,1-2.47,3,10.15,10.15,0,0,1-4.79.43,16.26,16.26,0,0,1-5.9-2.14c-.33-.2-.67-.4-1-.62l-.25-.17C382.18,152.57,374.65,138.07,374.16,125.14Z" style="fill:#9627BA"></path><path d="M374.16,125.14q0-.67,0-1.35a26.59,26.59,0,0,1,.94-7.32,14,14,0,0,1,4-6.78,10.78,10.78,0,0,1,1.3-.35,12.72,12.72,0,0,1,7.76,1.24l.35.16c.41.21.84.43,1.26.68s1,.59,1.48.92a28.22,28.22,0,0,1,3,2.37C401,120.83,406.36,131,408,141a38.83,38.83,0,0,1,.48,4.26c0,.67.06,1.34.06,2s0,1.43-.07,2.11a20.68,20.68,0,0,1-2.43,8.94,11.73,11.73,0,0,1-2.47,3,10.15,10.15,0,0,1-4.79.43,16.26,16.26,0,0,1-5.9-2.14c-.33-.2-.67-.4-1-.62l-.25-.17C382.18,152.57,374.65,138.07,374.16,125.14Z" style="opacity:0.25"></path><path d="M376.86,98.34c11.34-1.28,20.57,8.11,26.73,16.56,8.89,13.11,14.52,29.71,11.45,45.58v0c-1,4.42-3,8.84-6.69,11.65,3.75-2.75,5.93-7.17,7-11.62v0c2.83-13-.73-26.64-6.67-38.26C402.29,110.73,391.5,96.77,376.86,98.34Z" style="fill:#f5f5f5"></path><path d="M403.82,147.46c-.19-5-2.82-8.58-5.91-11.5l1.48.38,4.29-2.47a19.1,19.1,0,0,0-.77-2.75,18.44,18.44,0,0,0-2.23-4.25,23,23,0,0,0-5.5-5.47L395,117l-5.31-3.07-4.29,2.48,0,1.13v.24a5.38,5.38,0,0,0-1,.48c-.12.07-.22.15-.32.22-.5.37-3,1.66-4,2.26-.12.07-.22.15-.32.22-1.13.83-1.75,2.43-1.65,4.91h0a14,14,0,0,0,2.15,6.86l.33.5,0,.06.36.51a4.59,4.59,0,0,0,.33.44c0,.06.09.13.14.18a2.78,2.78,0,0,0,.26.32,27.53,27.53,0,0,0,2.38,2.54c.37.35.75.69,1.13,1l-2-.49L379,140.26a20.51,20.51,0,0,0,8.09,11.6l.17,4.44,5.36,3,4.29-2.48-.05-1.39a3.13,3.13,0,0,0,.86-.36l0,0c.65-.42,3.52-2,4.26-2.46l0,0C403.28,151.74,403.92,150.09,403.82,147.46Z" style="fill:#9627BA"></path><path d="M380.32,120.58c1.1-.64,3.3-1.8,3.76-2.14.12-.07.22-.15.33-.22a4.52,4.52,0,0,1,1.06-.48l.11,3.19A5.17,5.17,0,0,0,380.32,120.58Z" style="opacity:0.15"></path><path d="M392.52,146.48c.06,1.34-.71,2-2.94.78a7.93,7.93,0,0,1-4.15-5.39L379,140.26l4.28-2.47,1.95.48.12.1c.59.53,1.18,1,1.75,1.51l.68.56a26.69,26.69,0,0,1,3.57,3.3,4.71,4.71,0,0,1,1,1.75A3.6,3.6,0,0,1,392.52,146.48Z" style="opacity:0.45"></path><path d="M396.86,155.41l.05,1.39-4.28,2.46-.17-4.43A7.26,7.26,0,0,0,396.86,155.41Z" style="opacity:0.2"></path><path d="M390.73,119.44l-5.31-3.07,4.29-2.48L395,117l.15,4.44a23,23,0,0,1,5.5,5.47,18.44,18.44,0,0,1,2.23,4.25,19.1,19.1,0,0,1,.77,2.75l-4.29,2.47a19.92,19.92,0,0,0-.76-2.74,18.65,18.65,0,0,0-2.24-4.25,22.81,22.81,0,0,0-5.5-5.47Z" style="opacity:0.15"></path><path d="M395.18,121.4a17.25,17.25,0,0,1,4.83,4.1,15,15,0,0,1,2.9,5.62,27.62,27.62,0,0,0-3.35-5.26c-.65-.81-1.36-1.57-2.08-2.31S396,122.11,395.18,121.4Z" style="opacity:0.2"></path><path d="M402.05,152.54l0,0c-.74.46-3.61,2-4.26,2.46,1.23-.8,1.87-2.45,1.77-5.08-.23-5.85-3.71-9.66-7.41-12.85-3.44-3-6.49-4.8-6.6-7.63-.06-1.77,1.09-1.92,2.84-1a8.72,8.72,0,0,1,4.27,6.09l5.28,1.35v0c3.1,2.93,5.71,6.46,5.9,11.49C403.92,150.09,403.28,151.74,402.05,152.54Z" style="opacity:0.35000000000000003"></path><polygon points="389.72 139.39 385.43 141.86 379.01 140.26 383.3 137.78 389.72 139.39" style="fill:#9627BA"></polygon><polygon points="389.72 139.39 385.43 141.86 379.01 140.26 383.3 137.78 389.72 139.39" style="opacity:0.15"></polygon><polygon points="392.63 159.27 392.46 154.83 396.87 155.4 396.92 156.79 392.63 159.27" style="fill:#9627BA"></polygon><polygon points="392.63 159.27 392.46 154.83 396.87 155.4 396.92 156.79 392.63 159.27" style="opacity:0.45"></polygon><path d="M385.46,117.5l.12,3.43a5.14,5.14,0,0,0-5.46-.23c-.12.07-.22.15-.32.22-1.13.83-1.75,2.43-1.65,4.91h0a14,14,0,0,0,2.15,6.86l.33.5,0,.06.36.51a4.59,4.59,0,0,0,.33.44c0,.06.09.13.14.18a2.78,2.78,0,0,0,.26.32,27.53,27.53,0,0,0,2.38,2.54c.4.38.82.76,1.23,1.12l1.76,1.51.68.56a26.69,26.69,0,0,1,3.57,3.3,4.84,4.84,0,0,1,1,1.74,4.27,4.27,0,0,1,.17,1c.05,1.33-.72,2-2.95.78a7.88,7.88,0,0,1-4.15-5.4l-6.42-1.6a20.51,20.51,0,0,0,8.09,11.6l.17,4.44,5.36,3-.17-4.44c2.23.88,4.05,1,5.27.21l0,0c1.23-.8,1.87-2.46,1.77-5.09-.22-5.84-3.71-9.65-7.41-12.84-3.45-3-6.49-4.79-6.6-7.63-.06-1.77,1.09-1.92,2.85-1a8.71,8.71,0,0,1,4.26,6.09l6.76,1.74a19,19,0,0,0-.77-2.74,18.51,18.51,0,0,0-2.23-4.26,22.76,22.76,0,0,0-5.5-5.46l-.16-4.44-5.31-3.07Z" style="fill:#9627BA"></path><path d="M385.46,117.5l.12,3.43a5.14,5.14,0,0,0-5.46-.23c-.12.07-.22.15-.32.22-1.13.83-1.75,2.43-1.65,4.91h0a14,14,0,0,0,2.15,6.86l.33.5,0,.06.36.51a4.59,4.59,0,0,0,.33.44c0,.06.09.13.14.18a2.78,2.78,0,0,0,.26.32,27.53,27.53,0,0,0,2.38,2.54c.4.38.82.76,1.23,1.12l1.76,1.51.68.56a26.69,26.69,0,0,1,3.57,3.3,4.84,4.84,0,0,1,1,1.74,4.27,4.27,0,0,1,.17,1c.05,1.33-.72,2-2.95.78a7.88,7.88,0,0,1-4.15-5.4l-6.42-1.6a20.51,20.51,0,0,0,8.09,11.6l.17,4.44,5.36,3-.17-4.44c2.23.88,4.05,1,5.27.21l0,0c1.23-.8,1.87-2.46,1.77-5.09-.22-5.84-3.71-9.65-7.41-12.84-3.45-3-6.49-4.79-6.6-7.63-.06-1.77,1.09-1.92,2.85-1a8.71,8.71,0,0,1,4.26,6.09l6.76,1.74a19,19,0,0,0-.77-2.74,18.51,18.51,0,0,0-2.23-4.26,22.76,22.76,0,0,0-5.5-5.46l-.16-4.44-5.31-3.07Z" style="fill:#fff;opacity:0.1"></path><path d="M399.53,149.93a14.68,14.68,0,0,0-1.76-6.08,20.62,20.62,0,0,0-3.93-5c-1.52-1.5-3.21-2.81-4.84-4.19a19,19,0,0,1-2.3-2.27,5,5,0,0,1-1.18-2.94,4.94,4.94,0,0,0,1.3,2.85,19.13,19.13,0,0,0,2.33,2.17c1.66,1.34,3.36,2.66,4.9,4.16a20,20,0,0,1,3.93,5.09,14.14,14.14,0,0,1,1.15,3A16.38,16.38,0,0,1,399.53,149.93Z" style="fill:#fff"></path><polygon points="390.73 119.44 395.02 116.96 395.18 121.4 390.89 123.88 390.73 119.44" style="fill:#9627BA"></polygon><polygon points="390.73 119.44 395.02 116.96 395.18 121.4 390.89 123.88 390.73 119.44" style="opacity:0.35000000000000003"></polygon><polygon points="385.42 116.37 390.24 119.69 390.89 123.88 390.73 119.44 385.42 116.37" style="fill:#fafafa"></polygon><polygon points="387.1 151.86 387.71 156.02 392.63 159.27 387.27 156.3 387.1 151.86" style="fill:#fafafa"></polygon><path d="M379,140.26a19.67,19.67,0,0,0,.79,2.39l1.76-1.75Z" style="fill:#fff;opacity:0.15"></path><path d="M399.51,149.74a14.07,14.07,0,0,0-2-6.65l-10.32,10.32.11,2.89,3.66,2,1.6-1.6-.07-1.89a13.3,13.3,0,0,0,1.48.48Z" style="fill:#fff;opacity:0.15"></path><path d="M378.21,126.72a13.31,13.31,0,0,0,1,3.91l11.32-11.31-3.13-1.8-1.89,1.88.06,1.53a5.67,5.67,0,0,0-1.05-.54Z" style="fill:#fff;opacity:0.15"></path><path d="M380.66,133.26l.36.51a4.59,4.59,0,0,0,.33.44c0,.06.09.13.14.18a2.78,2.78,0,0,0,.26.32,27.53,27.53,0,0,0,2.38,2.54c.19.18.38.34.57.51l3.73-3.74c-1.68-1.47-2.84-2.83-2.91-4.56s1.09-1.92,2.85-1a8.18,8.18,0,0,1,2.88,2.7l3.69-3.69a23.55,23.55,0,0,0-4.05-3.64l-.06-1.68-10.52,10.53.31.47Z" style="fill:#fff;opacity:0.15"></path></g><polygon points="404.64 112.27 405.14 105.66 405.65 112.27 412.26 112.77 405.65 113.28 405.14 119.89 404.64 113.28 398.03 112.77 404.64 112.27" style="fill:#fff"></polygon><polygon points="409.83 117.69 410.07 114.49 410.32 117.69 413.52 117.94 410.32 118.18 410.07 121.39 409.83 118.18 406.62 117.94 409.83 117.69" style="fill:#fff"></polygon></g></g></g><g id="freepik--Character--inject-18"><g id="freepik--Shadow--inject-18"><path d="M193.17,344.55c-10.83,3.15-20.58-3.63-26.36-8.84s-16.71-8.79-16.71-8.79L174.2,313s9.59,11.16,17.67,14.8S210.54,339.5,193.17,344.55Z" style="opacity:0.1"></path><path d="M137.71,374.44,95.52,369v-21.1S84.23,343.8,78,336.57c-5-5.8-.24-16.25,14.84-18L119.53,334v9.06l18.18,1.5Z" style="opacity:0.1"></path></g><g id="freepik--character--inject-18"><g id="freepik--Bottom--inject-18"><path d="M173,163.14l-32.13,2.94s-2.1,10.54-2.76,18.52,4.16,15.64,4.16,15.64l2.45,13.49c-15.05,4.76-21.56,12.51-28.63,21-5.14,6.21-6.17,7.41-10.26,11.75-3,3-5,4.58-5,4.58-4.25,2.13-10.44,7.75-9.94,11.51s3.4,8.3,2.7,12.78-2.19,9.28.52,15.58c2,4.72,7.37,6.22,11.18,6.1,9.82-.31,5.95-6.67,4.78-10.58-1.54-5.12-2.16-6.34-1.34-14.93.58-6.14,1.41-9.08,5-11.32h0c8.68-5.35,28.31-17.4,39.06-23.7,10.69-5.53,12.4-5.83,15.61-16.3C175.08,198.62,174.34,171.16,173,163.14Z" style="fill:#ffbda7"></path><path d="M141.71,200.68s-4.42-6.83-4.47-13.19,2.66-21.41,2.66-21.41l35.06-3c3.11,12.74.87,26.69-.29,36-1.7,12.51-5,23.08-7.72,27.51s-3.19,5-15.3,11.4-30.47,18.06-30.47,18.06-3.49.58-7.46-4.91c-2.79-3.85-3.71-9.66-3.71-9.66.9-1.19,2.92-3.59,4.84-6,3.07-3.89,10.82-11.85,15.28-15.12a57.26,57.26,0,0,1,13.79-7Z" style="fill:#263238"></path><path d="M90.05,260.48c-1.57,2.44-1.15,3.56-.91,5.27s2.87,6.75,2.54,8.88-2.08,10.12-.45,14.59,3.46,7.75,9,9.51,10.89-.91,12.06-3.67Z" style="fill:#263238"></path><path d="M101,264.24c1.52-2.74,3.65-4,6.32-3.68s4.64.41,6-.17-.32,1.62-1.95,5.08-2.41,11.32-2.28,14.85,2.95,7.47,2.9,9.56a10.55,10.55,0,0,1-1.42,4.37s-12.3,3.9-16.49-2.46a13.89,13.89,0,0,1-2-9c.41-4.65,1.35-8.15.8-11.37-.45-2.6-3.61-7.51-2.92-10.92,1.35-3.33,2.69-4.42,5.21-6.59s4.87-3,5.57-2.79c-.16.3-.7,1-1.07,1.62a11.69,11.69,0,0,0,.38,4.91c.8,2.3.49,2.06.15,4.23S99.6,266.84,101,264.24Z" style="fill:#37474f"></path><path d="M94.14,291.79c1.55-3.33,6.48-6.4,12.09-7,3.77-.39,4.42.59,5.29,2,1.23,2,2.18,6,.94,8-1.79,2.69-7,3.73-11.44,2.27C98.29,296.18,95.36,294.43,94.14,291.79Z" style="fill:#f5f5f5"></path><path d="M108.6,279.19a7.3,7.3,0,0,0-2.86-.49,9.48,9.48,0,0,0-6,1.69c-.07.05-.22.35,0,.3a15.66,15.66,0,0,1,5.52-.91,9.69,9.69,0,0,1,2.71.37,3.27,3.27,0,0,1,1.08.67c.19.17.38.51.66.51.08,0,.15-.1.18-.18A1.77,1.77,0,0,0,108.6,279.19Z" style="fill:#fafafa"></path><path d="M108.82,275.43A7.21,7.21,0,0,0,106,275a9.49,9.49,0,0,0-5.94,1.79c-.07.06-.21.35,0,.3a15.44,15.44,0,0,1,5.45-1,9.08,9.08,0,0,1,2.68.32,3.1,3.1,0,0,1,1.08.64c.19.17.38.51.66.5.08,0,.15-.1.17-.18A1.71,1.71,0,0,0,108.82,275.43Z" style="fill:#fafafa"></path><path d="M109,271.66a7,7,0,0,0-2.81-.39,9.41,9.41,0,0,0-5.86,1.88c-.08.06-.21.35,0,.29a15.79,15.79,0,0,1,5.39-1.09,9.66,9.66,0,0,1,2.66.28,3.14,3.14,0,0,1,1.08.62c.18.16.37.5.65.48.08,0,.15-.1.17-.18A1.69,1.69,0,0,0,109,271.66Z" style="fill:#fafafa"></path><path d="M109.25,267.89a6.89,6.89,0,0,0-2.78-.34,9.36,9.36,0,0,0-5.8,2c-.07.06-.2.35,0,.29a15.55,15.55,0,0,1,5.33-1.18,9.12,9.12,0,0,1,2.63.23,3,3,0,0,1,1.07.6c.18.15.38.49.65.47.07,0,.14-.11.16-.19A1.66,1.66,0,0,0,109.25,267.89Z" style="fill:#fafafa"></path><path d="M163.81,246.34s-14-14.72-24.07-25.44c-4.39-4.7-10.72-12.2-14.23-19.63-3.89-8.22-3.7-17.65-2.39-24.17a42.73,42.73,0,0,1,5.56-13.76l44.29-.2a92.11,92.11,0,0,1-4.5,14.55c-2.76,6.39-8.9,10.4-8.9,10.4,9.89,17.26,27.05,40.52,28.19,48.59.53,3.75.69,11.26.43,20-.69,20-.3,41-.13,45.47.17,4.27,1.23,8.67,3.28,14.48a23.2,23.2,0,0,0,7.1,10.25c3.13,2.62,8,5.08,4.88,8.53-2.57,2.8-10.4,3.74-15.34,2.34-6.59-1.88-8-6.94-9.72-11.28s-3.67-6.58-7-8.61-3.35-6.14-1.09-9.85,2.59-4.08,2.18-8.34c-.93-9.61-5.59-24.61-7.2-31.73C161.71,252.53,163.81,246.34,163.81,246.34Z" style="fill:#ffbda7"></path><path d="M131.85,212.89c-3.32-4.46-6.93-8.78-9.22-15.85a37.79,37.79,0,0,1-1.14-20.32,36.13,36.13,0,0,1,7.16-14.18l44.32.6c2.48,15.77-10.88,25.92-10.88,25.92l5.83,9.53c6.4,9.76,16.75,27.93,19,33.26s2.23,5.72,1.88,19.16-.88,42.32-.88,42.32-1.78,2.47-8.83,2.56-8-2.24-8-2.24-2.53-10.75-3.61-15c-2.06-8.12-6.48-22-4.22-32C163.25,246.58,135.18,217.35,131.85,212.89Z" style="fill:#37474f"></path><path d="M162.58,202.14a117.49,117.49,0,0,1,11.92,17.68q2.64,4.63,5,9.47,1.14,2.42,2.16,4.92c.32.86.66,1.68.91,2.6a11.6,11.6,0,0,1,.35,1.38c.07.45.15.91.21,1.36.86,7.13,1.16,14.2,1.43,21.3s.34,14.19.25,21.29q-1-10.61-1.79-21.21l-.83-10.59c-.32-3.52-.56-7.06-1.05-10.51,0-.44-.13-.85-.2-1.27a10.52,10.52,0,0,0-.3-1.2c-.21-.8-.54-1.62-.83-2.43-.63-1.62-1.33-3.23-2.07-4.83-1.43-3.21-3-6.37-4.61-9.52s-3.28-6.27-5-9.35S164.52,205.11,162.58,202.14Z" style="fill:#263238"></path><path d="M168.43,315.74c-.29,2.57-.22,2.64,1,4s5.2,3.1,6,5,2.75,9.41,6.88,12.55,8.13,4.22,14.8,3.77,8.37-3.64,8.07-6.31Z" style="fill:#263238"></path><path d="M180.83,312.8c.07-2.79-.41-4.12,2.52-4.81s5-1.26,6.18-2.23.56,1.45.75,4.87S194,320.82,196,323.68s7.14,5.17,8.23,6.9a7.73,7.73,0,0,1,.91,4.11s-2.26,4.8-11.18,4.42-12.12-3.56-14.23-7.54-2.73-8.43-5.07-10.13-5.1-3.88-6.26-5.7a12.29,12.29,0,0,1,1.42-8.14c1.43-2.67,1.83-5.18,2.68-5.22,0,.3-.06.95-.11,1.59a6.58,6.58,0,0,0,2.41,3.88c2.08,1.62,2.94,1.84,3.76,3.75S180.78,315.43,180.83,312.8Z" style="fill:#37474f"></path><path d="M184.69,336.9c-.21-3.29,4.18-7.59,10-9.5a8.47,8.47,0,0,1,9.16,2.32c1.23,1.24,1.48,2.9,1.28,5C204.55,339.27,191.81,341.52,184.69,336.9Z" style="fill:#f5f5f5"></path><path d="M194.84,323a10.28,10.28,0,0,0-3.24.57,9.55,9.55,0,0,0-5.3,3.47c-.05.07,0,.37.11.27a17.29,17.29,0,0,1,5.22-2.66,13.08,13.08,0,0,1,3-.62,5.37,5.37,0,0,1,1.49.17c.28.08.67.3,1,.2a.18.18,0,0,0,.08-.21C196.91,323.22,195.67,323,194.84,323Z" style="fill:#fafafa"></path><path d="M193,319.76a9.86,9.86,0,0,0-3.18.61,9.41,9.41,0,0,0-5.19,3.52c0,.08,0,.37.11.27a16.69,16.69,0,0,1,5.12-2.71,13,13,0,0,1,3-.66,5.18,5.18,0,0,1,1.47.16c.28.07.67.29.95.18a.16.16,0,0,0,.08-.2C195.05,320,193.82,319.77,193,319.76Z" style="fill:#fafafa"></path><path d="M191.18,316.57a9.61,9.61,0,0,0-3.13.65,9.19,9.19,0,0,0-5.06,3.57c-.05.08,0,.37.11.27a16.81,16.81,0,0,1,5-2.77,12.19,12.19,0,0,1,2.91-.68,4.71,4.71,0,0,1,1.45.14c.28.07.67.28.95.17a.18.18,0,0,0,.07-.21C193.19,316.8,192,316.57,191.18,316.57Z" style="fill:#fafafa"></path><path d="M189.34,313.38a9.3,9.3,0,0,0-3.07.68,9,9,0,0,0-4.93,3.64c-.05.07,0,.36.11.26a16.28,16.28,0,0,1,4.89-2.82,12.24,12.24,0,0,1,2.86-.72,4.63,4.63,0,0,1,1.43.13c.27.06.65.27.93.16a.18.18,0,0,0,.07-.21C191.33,313.59,190.13,313.37,189.34,313.38Z" style="fill:#fafafa"></path></g><g id="freepik--Top--inject-18"><path d="M171.22,105.43c4.72,2.14,10,4.77,14.79,11.79,3.6,5.24,20.17,30.19,22.57,34.61,0,0-10,12.63-10.31,12.44-3.55-2.45-29.66-32.42-29.66-32.42Z" style="fill:#ffbda7"></path><path d="M198.43,143.67c5.84-9,11.33-13.52,15-20.56.82-1.57.3-2.82,0-4.63a58,58,0,0,1-.26-6.54,51.42,51.42,0,0,0-.4-6,1.43,1.43,0,0,1,0-.41c.11-.64,1-.79,1.58-.57a4.38,4.38,0,0,1,2.38,2.77,37.55,37.55,0,0,0,1.29,3.79c1-.17,2.17-5.56,2.6-8.42a26.12,26.12,0,0,0,.28-4.42,16.06,16.06,0,0,1,.23-5,2.1,2.1,0,0,1,1.49-1.38.62.62,0,0,1,.4,0c.23.06.34.33.41.56.45,1.39.27,1,.72,2.44a2,2,0,0,0,.25.56,2.63,2.63,0,0,0,.75.56,4.71,4.71,0,0,1,2.17,3.14,5.24,5.24,0,0,0,.3,1.37,3.49,3.49,0,0,0,.92,1.07,4.92,4.92,0,0,1,1.82,2.45c.14.66,0,1.36.15,2a10.48,10.48,0,0,0,.77,1.8,8,8,0,0,1,0,5.52,58.65,58.65,0,0,1-3.28,7.88,58.54,58.54,0,0,0-3.18,6.08c-.56,1.3-1.21,2.51-1.78,3.8-2.26,5.13-3.77,8-6.05,13.13-2.75,6.17-4.07,8.63-5.28,10.94-1.44,2.76-4.45,7.18-9.84,8.85S191.15,154.9,198.43,143.67Z" style="fill:#ffbda7"></path><path d="M204.14,135.71l3.39-4.59a14.71,14.71,0,0,0,4.9,7.41c4,3.21,6.62,3,6.62,3l-2.76,5.64S205.72,144.12,204.14,135.71Z" style="fill:#f5f5f5"></path><path d="M172,105.8c6.52,2.61,9.41,4,15.52,12.83s13.64,20.08,13.64,20.08l4.11-5.35s-.7,3,4.39,7.91,8.21,4,8.21,4-4.7,9.71-6.93,13.13c-3.34,5.11-7,7.24-10.13,7.22s-4.64-1.85-10.31-7.62-19.61-22.28-19.61-22.28Z" style="fill:#37474f"></path><path d="M201.19,138.71c-5.94,8.12-6.56,13.18-6.56,13.18s-1.21-6,5.46-14.82Z" style="fill:#263238"></path><path d="M182.53,132a58.42,58.42,0,0,1,1.23,11.76,220.85,220.85,0,0,1-.57,25.42C176,158.4,157.09,154.82,145,155.79s-17.62,23.46-17.62,23.46-4.36-9.68,1.25-22.63a113.82,113.82,0,0,0,7.47-24.9Z" style="fill:#263238"></path><path d="M159.79,102.27l2.1.28s13.56,8.15,19.27,19.48-5.69,19.14-5.69,19.14-.62,13.05-.43,15.76,2.25,6.87.7,10c-1.89,3.79-8.54,8.59-25.33,7.18-12.59-1.06-22.87-5.66-24.25-8.11s.78-5.07,2.08-8.38c1.39-3.55,1.81-6.51.91-11.44s-2.33-13.32-3.31-21.21c-.82-6.68-1.78-18.14,13.84-21.15C147.52,102.31,159.79,102.27,159.79,102.27Z" style="fill:#f0f0f0"></path><path d="M172.82,91c-1-5,.5-11.4,1.09-13.63,3.19-3.79,4.52-7.74,4.48-9.93-.26-16.27-20.87-18.68-32.62-12.34a13.23,13.23,0,0,0-7.2,9.79c-2,.06-5.47,2.57-7.73,5.62a24.67,24.67,0,0,0-4.88,15c.14,4.34,2.08,7.66,3.84,8.4-1.82-7,2.66-10,2.66-10a14.89,14.89,0,0,0,1.26,12.82c7.75,12.3,35,12.52,44.83-1.49C176.21,94.84,173.3,93.43,172.82,91Z" style="fill:#263238"></path><path d="M172.14,65s2.7,3.08,2,11.56c-.12,1.46.81,4.12.67,7.87-.32,8.51-3.16,12.62-7.47,14.07a17.72,17.72,0,0,1-7,.18l-.72,7.49c3.69,7,5.49,11.93,5.42,18.2a135.46,135.46,0,0,0-21.77-19.06l.87-14.9s-2.47,1.84-5.31-1.14c-3.12-3.27-2.81-8.28-.13-10,3.93-2.48,6.45.56,7.26,2.4s3.06,2.2,3.4-2a8.86,8.86,0,0,0-.34-2.79c3.58-1.69,5.66-5.36,3.92-10.8C159.57,69.12,168,68.84,172.14,65Z" style="fill:#ffbda7"></path><path d="M159.41,87.81l5.24,1.43a2.67,2.67,0,0,1-3.28,2A2.84,2.84,0,0,1,159.41,87.81Z" style="fill:#b16668"></path><path d="M160.26,74.68l-4.09-.42a2,2,0,0,1,2.18-1.86A2.16,2.16,0,0,1,160.26,74.68Z" style="fill:#263238"></path><path d="M167.94,74.92l4-.82a2,2,0,0,0-2.35-1.63A2.14,2.14,0,0,0,167.94,74.92Z" style="fill:#263238"></path><polygon points="164.07 76.38 164.38 85.66 169.77 84.07 164.07 76.38" style="fill:#f0997a"></polygon><path d="M160.31,98.66c-2.37-.4-8.25-2.19-11.1-4.19a10.63,10.63,0,0,1-3.1-4.46s.27,4.2,2.52,6.11c3.56,3,11.44,5.08,11.44,5.08Z" style="fill:#f0997a"></path><path d="M168.49,78.26a1.63,1.63,0,0,0,1.67,1.5,1.52,1.52,0,0,0,1.48-1.61A1.62,1.62,0,0,0,170,76.66,1.5,1.5,0,0,0,168.49,78.26Z" style="fill:#263238"></path><path d="M156.61,78.55A1.62,1.62,0,0,0,158,80.28a1.52,1.52,0,0,0,1.7-1.37,1.62,1.62,0,0,0-1.43-1.73A1.51,1.51,0,0,0,156.61,78.55Z" style="fill:#263238"></path><path d="M159.46,89.32a3.31,3.31,0,0,1,.63,0,3.81,3.81,0,0,1,2.84,1.85,2.51,2.51,0,0,1-1.56.06A2.74,2.74,0,0,1,159.46,89.32Z" style="fill:#f28f8f"></path><path d="M143.46,101.7c0,4.21,2.75,17,3.94,27s-1.46,35.37-20.05,50.57c-5.54-3.76-12.74-10.48-15-17.35,7.58-3.27,14-9.19,15.09-13.2s-2.85-16.13-3-22.39,10.22-22,10.22-22Z" style="fill:#455a64"></path><path d="M143.63,98.74a35.25,35.25,0,0,1-5.67,4.62s-1.52,9.53-2.29,12.81,7.94,8.9,7.94,8.9a36.49,36.49,0,0,1-2.29,6.48c-1.18,2.13,5.13,12.91,3.86,19.11,4.67-11.29,3.2-19.67,2.15-27.51S143.34,103.77,143.63,98.74Z" style="fill:#37474f"></path><path d="M183.76,143.76A51.1,51.1,0,0,0,176,119.09c-7.79-12.16-16.07-16.68-16.07-16.68l.29-2.93s7.05,3.41,11.31,5.85,6.79,11.57,6.79,11.57c1.08.8,4.1,3.07,4.62,4C184.52,123.56,184.17,129.87,183.76,143.76Z" style="fill:#263238"></path><path d="M108.07,182.66c-1.33-2.53-2.29-4.38-2.29-5.28.11-1.46,2.69,2,3.78,2.61a4,4,0,0,0,2.93.68c.66-.06,1.65-.83,1.51-1.49,0-.14-.14-.21-.24-.31a36.4,36.4,0,0,1-3.86-5.11,20.49,20.49,0,0,0-3.52-4.1A10.83,10.83,0,0,1,103,163.6a175.19,175.19,0,0,1-1.35-24.24c8.33-3.52,21.28-8.42,24.47-9.8a20.18,20.18,0,0,0,5.28-3.49c1.91-2.1,3.18-5.28,4.19-9.37.79-3.2,0-9.09-1.51-11.58a64.27,64.27,0,0,0-13.79,4.18,168.42,168.42,0,0,0-15.42,7,142.1,142.1,0,0,0-16.37,10.33c-1.89,1.41-4.19,2.9-3.62,8a133.58,133.58,0,0,0,2.23,14.43c.78,3.79,1.36,5.44,2.71,11.61.26,1.18.64,3.06,1.06,5.27s.73,5.3,1,7.54a40,40,0,0,0,1.2,6.84c.58,2,2.68,6.64,4.19,7.91.53.45,1.14.52,1.64,1s.77,1.05,1.31,1.46c.83.63,1.47.39,2.64.19a2.25,2.25,0,0,1,1.36.13,7.13,7.13,0,0,1,1.06.86,4,4,0,0,0,4.21.29c1.2.8,1.78,1.2,3,2a.93.93,0,0,0,.63.18.43.43,0,0,0,.31-.27,2.51,2.51,0,0,0,.33-1.93A7,7,0,0,0,112,188.9,70.38,70.38,0,0,1,108.07,182.66Z" style="fill:#ffbda7"></path><path d="M87.69,153.34l1.09,5s2.13,1.47,7.19.53,6.48-2.39,6.48-2.39l0-5.43Z" style="fill:#f5f5f5"></path><path d="M87.28,154.8c2.59,1.67,13.66.48,15.45-1.8l.14-13.33s22.42-7.76,26-10.09,5.64-3.88,7.74-12.29c1.55-6.18-.31-11.65-1.36-13.1-4.67.76-6.92,1-16.72,5s-23.95,12-29.19,15.91-5.56,5.17-5.07,9.25S87.28,154.8,87.28,154.8Z" style="fill:#37474f"></path></g></g></g></svg>